<?xml version="1.0" encoding="utf-8" standalone="no"?>
<!DOCTYPE svg PUBLIC "-//W3C//DTD SVG 1.1//EN"
  "http://www.w3.org/Graphics/SVG/1.1/DTD/svg11.dtd">
<!-- Created with matplotlib (http://matplotlib.org/) -->
<svg height="311pt" version="1.1" viewBox="0 0 621 311" width="621pt" xmlns="http://www.w3.org/2000/svg" xmlns:xlink="http://www.w3.org/1999/xlink">
 <defs>
  <style type="text/css">
*{stroke-linecap:butt;stroke-linejoin:round;}
  </style>
 </defs>
 <g id="figure_1">
  <g id="patch_1">
   <path d="
M0 311.719
L621.877 311.719
L621.877 0
L0 0
z
" style="fill:#ffffff;"/>
  </g>
  <g id="axes_1">
   <g id="patch_2">
    <path d="
M56.6775 243.407
L614.678 243.407
L614.678 13.0069
L56.6775 13.0069
z
" style="fill:#ffffff;"/>
   </g>
   <g id="line2d_1">
    <path clip-path="url(#pe067ca5dee)" d="
M106.898 226.127
L106.525 226.127
L106.154 226.383
L105.781 226.383
L105.41 226.511
L105.037 226.767
L104.666 226.767
L103.921 226.511
L103.55 226.511
L103.177 226.895
L102.806 226.895
L102.062 226.895
L101.689 226.895
L100.946 227.023
L100.573 227.023
L100.202 227.023
L99.8295 227.151
L99.4575 227.151
L99.0855 227.151
L98.7135 227.279
L98.3415 227.279
L97.2255 227.279
L96.8535 227.279
L96.4815 227.279
L96.1095 227.279
L95.3655 227.535
L94.6215 227.791
L94.2495 227.791
L93.8775 227.919
L93.5055 228.047
L92.7615 228.303
L92.3895 228.303
L92.0175 228.303
L91.6455 228.431
L91.2735 228.559
L90.9015 228.815
L90.1575 228.943
L89.7855 228.943
L89.4135 229.327
L89.0415 229.327
L88.6695 229.327
L88.2975 229.327
L87.9255 229.327
L87.5535 229.583
L86.8095 229.583
L86.4375 229.711
L86.0655 229.711
L85.6935 229.711
L85.3215 229.711
L84.9495 229.711
L84.5775 229.967
L84.2055 230.095
L83.8335 230.223
L83.4615 230.223
L81.2295 230.863
L80.8575 230.863
L80.4855 230.991
L80.1135 230.991
L79.7415 231.119
L79.3695 231.119
L78.9975 231.119
L78.6255 231.119
L78.2535 231.119
L77.8815 231.119
L77.5095 231.119
L77.1375 231.119
L76.7655 231.759
L76.3935 230.735
L76.0215 230.863
L75.6495 230.863
L75.2775 230.863
L74.5335 230.991
L74.1615 230.991
L73.7895 231.375
L73.4175 231.375
L73.0455 231.375
L72.6735 231.375
L72.3015 231.375
L71.9295 231.375
L71.5575 231.375
L71.1855 231.375
L70.8135 231.375
L70.4415 231.503
L67.8375 231.631
L67.0935 231.631
L65.9775 231.631
L63.3735 231.887
L63.0015 232.015
L62.2575 232.143
L61.8855 232.143
L61.1415 232.271
L60.3975 232.399
L60.0255 232.399
L59.2815 232.399
L58.9095 232.399
L58.5375 232.399
L58.1655 232.399
L57.7935 232.399
L57.4215 232.399
L57.0495 232.527
L56.6775 232.527" style="fill:none;stroke:#ff0000;stroke-linecap:square;stroke-width:2;"/>
   </g>
   <g id="line2d_2">
    <path clip-path="url(#pe067ca5dee)" d="
M394.082 180.047
L384.037 180.047
L383.666 180.175
L382.55 180.047
L378.458 180.047
L378.085 180.175
L377.714 180.047
L377.341 180.047
L376.97 180.175
L376.598 180.047
L375.481 180.047
L375.11 180.175
L373.249 180.175
L372.878 180.047
L368.414 180.047
L368.041 180.175
L367.67 180.047
L365.066 180.047
L364.693 180.175
L364.322 180.047
L363.949 180.175
L363.578 180.047
L359.113 180.047
L358.742 180.175
L357.997 180.175
L357.626 180.303
L356.882 180.175
L356.509 180.303
L356.138 180.175
L355.022 180.175
L354.649 180.303
L354.278 180.175
L352.046 180.175
L351.673 180.303
L351.302 180.175
L349.442 180.175
L349.069 180.303
L309.265 181.071
L307.034 181.327
L305.546 181.327
L297.734 181.455
L289.55 181.455
L284.714 181.839
L281.737 182.095
L278.389 182.095
L277.645 182.351
L276.158 182.095
L267.23 182.351
L264.626 182.863
L263.138 182.991
L261.278 183.503
L259.79 184.143
L253.838 185.423
L251.977 185.679
L250.117 185.807
L249.002 186.063
L242.677 187.855
L236.354 189.135
L228.914 191.311
L228.541 191.823
L228.17 192.079
L227.426 191.951
L226.682 192.207
L225.566 192.207
L225.193 192.335
L224.449 192.335
L224.078 192.591
L223.705 192.591
L223.334 192.847
L222.961 192.847
L221.845 192.719
L217.753 193.487
L217.009 193.487
L214.405 194.383
L213.661 194.383
L210.686 194.895
L210.313 195.151
L208.825 195.407
L205.477 196.431
L205.106 196.815
L204.361 197.071
L203.617 197.071
L203.246 197.199
L201.758 197.455
L201.385 197.839
L201.014 197.967
L200.642 197.967
L199.898 198.607
L198.781 198.991
L197.294 198.991
L196.55 199.375
L195.806 199.375
L193.573 199.503
L193.202 199.887
L192.458 199.887
L187.993 200.015
L187.622 200.271
L187.249 200.143
L186.878 200.399
L186.506 200.399
L186.133 200.527
L185.762 200.783
L184.274 201.039
L182.414 201.039
L182.041 201.295
L181.297 201.295
L179.438 201.807
L177.578 202.575
L175.718 202.575
L174.23 202.831
L172.742 203.599
L172.37 203.599
L171.997 203.343
L169.765 204.751
L169.022 205.135
L168.278 205.135
L167.905 205.263
L167.534 205.647
L167.161 205.647
L166.79 205.903
L165.302 205.903
L164.93 206.543
L164.557 206.543
L162.698 207.695
L160.094 208.463
L158.234 209.359
L155.629 209.871
L154.885 210.127
L153.398 210.127
L153.025 210.255
L151.91 210.767
L150.421 211.151
L150.05 211.407
L149.306 211.407
L148.562 211.663
L147.818 211.663
L145.585 211.791
L144.098 212.431
L143.726 212.431
L143.354 212.815
L142.981 212.815
L142.61 212.943
L142.237 212.943
L141.866 213.199
L140.006 213.839
L138.889 213.839
L138.518 213.967
L138.145 213.967
L137.774 214.095
L137.03 214.095
L136.658 214.223
L136.285 214.223
L135.914 214.351
L135.541 214.607
L135.17 214.607
L134.797 214.735
L134.426 214.735
L134.053 214.863
L133.31 214.863
L132.566 215.247
L131.449 215.247
L130.705 215.503
L130.334 215.503
L129.961 215.759
L129.218 215.759
L128.845 215.887
L128.474 216.143
L128.101 216.143
L126.986 216.399
L126.613 216.655
L126.242 216.655
L125.87 214.351
L125.497 216.911
L125.126 217.167
L124.753 217.167
L124.382 217.295
L123.265 217.167
L122.894 217.295
L122.149 217.295
L121.405 217.551
L119.917 217.551
L119.546 218.575
L118.802 218.575
L118.057 218.959
L117.686 219.087
L116.569 219.855
L114.338 219.855
L113.594 220.111
L113.221 220.495
L112.477 218.959
L111.734 219.215
L111.361 219.599
L110.617 219.599
L110.246 219.727
L109.873 219.727
L109.129 220.111
L108.385 220.111
L107.642 220.367
L107.269 220.367
L106.525 220.751
L105.41 221.135
L105.037 221.391
L104.666 221.391
L103.55 221.519
L103.177 221.903
L102.806 222.031
L100.946 222.031
L99.8295 222.415
L99.0855 222.415
L98.7135 222.543
L98.3415 222.543
L96.1095 222.799
L95.3655 223.183
L94.6215 223.823
L93.8775 223.823
L93.5055 224.207
L92.7615 224.335
L92.3895 224.591
L92.0175 224.591
L91.2735 224.847
L90.9015 225.103
L89.7855 225.231
L89.4135 225.615
L87.9255 225.615
L87.5535 225.871
L86.8095 225.871
L86.0655 226.127
L85.6935 226.127
L85.3215 226.383
L84.9495 226.383
L84.2055 226.767
L80.4855 228.047
L80.1135 233.295
L79.7415 228.175
L79.3695 228.175
L78.9975 228.303
L77.5095 228.303
L77.1375 228.431
L76.3935 228.431
L76.0215 228.687
L75.2775 228.687
L74.5335 228.815
L74.1615 229.199
L71.1855 229.199
L70.8135 229.327
L70.4415 229.583
L65.9775 229.711
L62.2575 230.351
L61.8855 230.351
L61.1415 230.607
L58.5375 230.991
L57.4215 230.991
L57.0495 231.119
L56.6775 231.119
L56.6775 231.119" style="fill:none;stroke:#008000;stroke-linecap:square;stroke-width:2;"/>
   </g>
   <g id="line2d_3">
    <path clip-path="url(#pe067ca5dee)" d="
M556.274 127.183
L555.53 127.183
L524.654 127.439
L522.421 127.311
L522.05 127.439
L518.702 127.439
L517.958 127.823
L517.585 127.439
L516.841 127.695
L516.47 127.567
L504.566 127.567
L504.193 127.695
L503.822 127.567
L494.149 127.567
L493.778 127.695
L488.198 127.695
L487.825 127.823
L487.454 128.463
L487.082 127.823
L484.85 127.823
L484.477 127.695
L484.106 127.823
L480.758 127.823
L478.525 128.079
L478.154 127.951
L476.666 127.951
L476.294 128.079
L475.921 127.951
L475.177 127.951
L474.806 128.079
L469.598 128.079
L465.878 128.335
L465.506 128.335
L465.133 128.463
L464.018 128.463
L463.645 128.591
L463.274 128.463
L461.041 128.463
L460.67 128.591
L457.322 128.591
L456.949 128.719
L456.578 128.719
L455.834 128.847
L453.974 128.591
L452.113 128.591
L451.742 128.719
L447.649 128.719
L430.91 128.975
L429.421 129.231
L428.306 129.231
L427.933 129.359
L426.073 129.103
L425.702 129.231
L423.47 129.231
L421.981 129.743
L421.237 129.743
L420.866 130.383
L419.006 129.743
L417.145 129.743
L414.541 129.999
L413.426 129.999
L412.682 130.127
L409.334 130.127
L408.59 130.767
L408.218 130.895
L407.101 130.767
L406.73 131.023
L403.009 131.279
L402.265 131.535
L400.405 131.535
L399.661 131.791
L398.917 131.791
L398.173 132.047
L395.198 132.047
L394.825 132.175
L394.454 132.559
L393.338 132.943
L392.965 133.455
L392.221 133.455
L391.85 133.583
L391.477 133.583
L390.734 133.839
L390.361 134.223
L389.617 134.479
L389.246 134.479
L388.873 134.735
L388.129 134.735
L387.758 134.863
L387.385 134.863
L386.642 135.247
L386.269 135.375
L385.898 135.631
L385.154 135.631
L384.41 135.887
L383.666 135.887
L382.921 136.143
L382.55 136.527
L382.177 136.655
L381.806 136.911
L381.433 136.911
L381.062 137.039
L380.689 137.039
L380.318 137.167
L379.946 137.167
L378.829 137.551
L376.97 137.551
L376.598 137.807
L376.226 137.807
L375.854 138.063
L375.481 138.063
L375.11 138.319
L374.737 138.319
L374.366 138.191
L373.993 138.191
L372.133 139.471
L371.018 139.343
L370.274 139.727
L369.901 139.855
L369.53 139.855
L369.158 139.983
L368.785 139.983
L367.297 140.495
L366.553 140.623
L366.182 140.879
L365.81 140.879
L365.438 141.007
L365.066 140.879
L364.693 140.879
L363.949 141.135
L363.578 141.135
L362.834 141.391
L362.461 141.263
L362.09 141.263
L361.345 141.519
L360.974 141.519
L360.601 141.647
L360.23 141.647
L359.113 142.031
L358.742 142.543
L358.37 142.543
L357.997 142.671
L357.626 143.055
L356.509 143.311
L355.765 143.567
L355.022 143.567
L354.649 143.695
L354.278 143.695
L353.161 144.079
L352.79 143.951
L352.417 144.079
L352.046 144.079
L351.302 144.847
L350.93 144.847
L350.557 144.975
L350.186 144.847
L349.813 144.975
L349.069 145.359
L343.117 148.303
L323.774 156.623
L317.822 160.719
L309.265 163.279
L307.034 164.559
L305.546 165.711
L297.734 168.143
L287.689 170.703
L284.714 171.855
L281.737 172.495
L278.389 173.007
L277.645 173.519
L276.158 173.647
L271.693 175.055
L267.23 177.871
L266.113 178.255
L264.626 178.895
L263.138 175.695
L261.278 176.847
L259.79 177.615
L253.838 180.047
L251.977 180.943
L249.002 181.711
L242.677 184.911
L239.329 185.551
L236.354 186.319
L228.914 188.623
L228.541 189.135
L228.17 189.391
L227.426 189.391
L226.682 189.647
L224.449 189.903
L224.078 190.287
L223.705 190.287
L223.334 190.543
L221.845 190.543
L217.753 191.695
L217.009 191.695
L216.265 191.951
L215.522 192.335
L214.405 192.847
L213.661 192.847
L210.686 193.231
L210.313 193.487
L208.825 193.743
L205.477 194.767
L205.106 195.151
L204.361 195.407
L203.617 195.407
L203.246 195.663
L201.758 195.919
L201.014 196.303
L200.642 196.303
L199.525 197.327
L198.781 197.583
L197.294 197.839
L196.55 198.223
L195.806 198.351
L193.573 198.479
L193.202 198.863
L192.458 198.863
L187.993 199.375
L187.622 199.631
L187.249 199.503
L186.878 199.759
L186.133 199.759
L185.762 200.015
L183.53 200.143
L182.785 200.399
L182.414 200.399
L182.041 200.655
L181.297 200.655
L179.438 201.807
L177.578 201.935
L175.718 201.935
L174.23 202.191
L172.742 202.959
L172.37 202.575
L171.997 202.575
L169.022 204.495
L168.278 204.495
L167.905 204.623
L167.534 205.007
L167.161 205.007
L166.79 205.135
L165.673 205.263
L165.302 205.263
L164.93 206.031
L164.557 206.031
L162.698 207.183
L160.094 208.079
L158.977 208.335
L158.234 208.847
L155.629 209.359
L154.885 209.615
L153.025 209.615
L151.91 210.255
L150.794 210.383
L150.05 210.895
L149.306 210.895
L148.933 211.023
L148.562 211.279
L147.818 211.279
L145.585 211.407
L144.098 212.047
L143.726 212.047
L143.354 212.431
L142.981 212.431
L142.61 212.559
L142.237 212.559
L141.866 212.815
L140.006 213.583
L138.889 213.583
L138.145 213.839
L137.03 213.839
L136.658 213.967
L136.285 213.967
L135.914 214.095
L135.541 214.351
L135.17 214.351
L134.797 214.479
L134.426 214.479
L134.053 214.607
L133.31 214.607
L132.566 215.119
L131.449 215.119
L130.705 215.375
L130.334 215.375
L129.961 215.631
L129.218 215.631
L128.845 215.759
L128.474 216.015
L128.101 216.015
L126.986 216.271
L126.613 216.527
L125.87 216.527
L125.126 217.039
L124.753 217.039
L124.382 217.167
L123.265 217.039
L122.894 217.167
L122.149 217.167
L121.778 217.295
L121.405 217.295
L120.29 217.423
L119.917 217.423
L119.546 218.447
L118.802 218.447
L118.057 218.831
L117.686 218.959
L116.569 219.727
L114.338 219.727
L113.594 219.983
L113.221 220.367
L112.477 220.623
L112.106 220.623
L110.99 221.263
L110.617 221.263
L110.246 221.391
L109.873 221.391
L109.129 221.775
L108.385 221.775
L107.642 222.031
L107.269 222.415
L107.269 222.415" style="fill:none;stroke:#0000ff;stroke-linecap:square;stroke-width:2;"/>
   </g>
   <g id="line2d_4">
    <path clip-path="url(#pe067ca5dee)" d="
M568.921 87.2469
L564.458 87.7589
L556.274 87.8869
L555.53 87.7589
L524.654 89.8069
L522.421 89.6789
L522.05 89.9349
L520.562 90.0629
L519.446 89.9349
L519.073 89.9349
L518.702 90.1909
L518.329 90.1909
L517.958 91.8549
L517.585 90.4469
L516.841 90.7029
L516.47 90.7029
L515.726 90.8309
L515.354 90.4469
L514.981 90.9589
L513.866 90.3189
L513.122 90.1909
L512.749 90.5749
L511.633 90.5749
L511.262 90.4469
L510.889 90.5749
L510.518 90.4469
L509.774 90.4469
L509.401 90.5749
L509.03 90.8309
L507.914 90.8309
L507.541 90.7029
L506.797 90.9589
L506.426 90.9589
L506.053 90.8309
L505.31 91.0869
L504.566 90.9589
L504.193 91.0869
L503.822 90.9589
L503.449 91.0869
L501.961 91.3429
L501.59 91.2149
L501.218 91.2149
L500.845 91.0869
L500.474 91.2149
L499.73 91.2149
L499.357 91.3429
L498.613 91.2149
L497.87 91.5989
L497.497 91.5989
L497.126 91.7269
L496.382 92.1109
L496.009 91.8549
L494.894 92.2389
L494.522 92.1109
L494.149 92.2389
L493.778 92.6229
L493.405 92.7509
L493.034 92.6229
L492.29 92.7509
L491.917 93.2629
L491.546 93.1349
L491.173 93.2629
L490.802 93.5189
L490.43 93.5189
L490.057 93.9029
L489.686 93.6469
L489.313 93.6469
L488.942 94.0309
L488.569 93.9029
L488.198 93.9029
L487.454 95.0549
L487.082 94.7989
L486.709 94.7989
L485.965 95.1829
L485.594 95.3109
L484.477 96.2069
L484.106 96.0789
L483.734 96.2069
L483.361 96.4629
L482.99 96.2069
L482.617 96.4629
L480.758 96.4629
L479.642 97.4869
L478.154 97.9989
L477.781 97.8709
L477.037 98.8949
L476.666 98.7669
L476.294 99.0229
L475.921 98.8949
L475.55 98.8949
L475.177 99.0229
L474.806 99.0229
L474.433 99.6629
L473.689 100.303
L472.946 100.559
L472.573 100.559
L471.458 101.199
L470.714 101.455
L470.341 101.455
L469.97 101.839
L469.598 101.839
L466.993 103.247
L466.622 103.631
L466.249 103.503
L465.878 103.503
L465.506 103.631
L464.762 104.271
L464.389 104.143
L464.018 104.399
L463.645 105.039
L463.274 105.039
L462.53 105.295
L461.785 105.295
L461.414 105.551
L461.041 105.551
L460.297 106.191
L459.926 105.935
L459.553 105.935
L459.182 106.191
L458.81 106.959
L458.438 107.087
L458.066 106.959
L457.693 107.087
L457.322 106.959
L456.949 107.343
L456.578 107.471
L455.834 107.343
L453.974 107.215
L453.601 107.727
L452.857 108.367
L452.486 109.007
L452.113 109.135
L451.742 109.391
L450.997 109.519
L450.626 109.775
L447.649 110.031
L433.885 115.023
L432.025 115.023
L431.654 115.663
L430.91 115.663
L429.421 116.175
L428.306 116.175
L427.933 116.687
L426.073 116.943
L425.702 117.711
L424.958 117.967
L424.585 118.735
L423.47 118.735
L423.098 118.863
L421.981 119.759
L421.237 119.759
L420.866 120.527
L419.006 119.759
L418.633 119.759
L418.262 119.887
L417.889 119.887
L417.518 119.759
L417.145 119.887
L416.03 120.399
L414.914 120.527
L414.541 120.527
L413.797 120.655
L413.426 120.527
L412.682 120.783
L411.938 121.295
L411.566 121.935
L410.822 121.679
L410.078 121.935
L409.705 122.447
L409.334 122.575
L408.961 122.959
L408.59 123.599
L408.218 123.855
L407.101 123.983
L406.73 125.007
L402.265 126.543
L401.894 126.543
L401.149 127.055
L400.405 127.055
L399.661 127.951
L398.917 127.951
L398.546 128.079
L397.802 128.463
L397.43 128.591
L397.057 129.103
L396.686 129.103
L396.313 129.231
L395.569 129.615
L395.198 129.743
L394.454 130.639
L394.082 130.639
L393.338 131.023
L392.965 129.359
L392.221 129.231
L391.85 129.359
L390.734 129.999
L390.361 131.407
L389.99 131.919
L388.873 132.303
L388.502 132.687
L388.129 132.559
L387.758 132.559
L387.385 131.663
L387.014 131.919
L386.642 132.431
L386.269 132.431
L385.898 132.815
L385.525 132.943
L385.154 132.815
L383.666 133.327
L382.921 133.711
L382.55 134.223
L382.177 134.223
L381.806 134.479
L381.433 134.479
L380.318 134.863
L379.946 134.863
L379.202 135.503
L378.829 135.503
L378.458 135.631
L378.085 135.503
L376.97 135.503
L376.598 135.759
L376.226 136.655
L375.854 136.015
L375.481 136.143
L374.737 136.527
L374.366 136.655
L373.993 136.655
L373.249 137.679
L372.878 137.679
L372.133 138.319
L371.018 138.191
L369.901 138.959
L369.53 138.959
L369.158 139.087
L368.785 139.087
L368.414 139.215
L368.041 139.471
L367.67 139.471
L367.297 139.599
L366.553 139.727
L366.182 140.111
L365.438 140.111
L365.066 139.983
L364.322 140.239
L363.578 140.239
L363.205 140.367
L362.834 140.367
L362.461 140.495
L362.09 140.495
L360.601 141.007
L360.23 141.007
L359.486 141.519
L359.113 141.519
L358.742 142.031
L358.37 142.031
L357.997 142.159
L357.626 142.415
L355.765 143.055
L355.022 143.055
L354.649 143.183
L354.278 143.183
L353.534 143.439
L353.161 143.439
L352.79 143.567
L352.417 143.439
L352.046 143.567
L351.302 144.335
L350.186 144.335
L349.813 144.463
L349.069 144.847
L323.774 156.751
L317.822 160.719
L309.265 163.407
L307.034 164.559
L305.546 165.711
L297.734 168.271
L285.085 171.471
L284.714 171.727
L281.737 172.367
L281.737 172.367" style="fill:none;stroke:#000000;stroke-linecap:square;stroke-width:2;"/>
   </g>
   <g id="line2d_5">
    <path clip-path="url(#pe067ca5dee)" d="
M614.677 36.8149
L613.933 37.4549
L613.189 37.3269
L612.446 38.2229
L611.702 37.7109
L610.958 38.6069
L610.214 38.3509
L609.47 38.2229
L608.726 38.3509
L607.981 39.1189
L607.237 39.5029
L605.749 39.7589
L604.262 40.6549
L603.518 40.9109
L602.774 40.9109
L602.03 41.8069
L601.285 42.1909
L600.17 42.4469
L591.242 47.5669
L590.497 48.3349
L589.753 48.3349
L589.009 49.3589
L588.265 49.2309
L587.522 50.5109
L586.778 49.9989
L586.034 50.6389
L585.29 52.1749
L583.802 52.0469
L583.057 52.6869
L582.313 53.0709
L581.569 52.6869
L580.825 52.6869
L580.082 52.4309
L579.338 52.6869
L578.221 53.4549
L576.734 55.2469
L575.99 55.7589
L575.246 55.8869
L574.502 56.3989
L573.758 56.6549
L573.014 57.0389
L572.269 57.1669
L571.525 57.8069
L569.666 59.0869
L568.921 58.4469
L564.458 59.5989
L555.53 63.3109
L524.654 80.8469
L522.421 81.6149
L522.05 82.2549
L520.933 83.0229
L520.562 83.0229
L519.446 83.4069
L519.073 83.7909
L518.329 84.0469
L517.958 86.3509
L517.585 84.5589
L517.214 85.9669
L516.841 85.8389
L516.47 85.8389
L515.726 86.2229
L515.354 86.6069
L514.981 86.7349
L512.378 87.3749
L510.889 88.6549
L510.518 89.1669
L508.658 89.5509
L507.914 89.9349
L507.541 89.8069
L507.17 90.0629
L506.797 90.0629
L506.053 90.3189
L505.31 90.7029
L504.566 90.8309
L504.193 91.0869
L503.822 90.8309
L502.705 91.7269
L502.334 91.5989
L501.961 91.8549
L501.59 91.7269
L500.845 91.7269
L500.474 91.9829
L499.357 92.1109
L498.613 92.1109
L497.87 93.0069
L497.497 93.0069
L496.753 93.3909
L495.638 93.7749
L494.894 94.4149
L494.522 89.2949
L494.149 89.4229
L493.778 89.9349
L493.034 90.1909
L492.29 90.3189
L491.546 90.9589
L491.173 91.0869
L490.802 91.9829
L490.43 92.1109
L490.057 92.6229
L489.686 94.5429
L489.313 92.7509
L488.942 93.1349
L488.569 93.0069
L488.198 93.1349
L487.825 93.7749
L487.454 94.0309
L486.709 94.0309
L486.338 94.5429
L485.965 94.5429
L483.734 96.2069
L483.361 96.0789
L482.617 96.3349
L482.246 96.3349
L481.873 96.4629
L481.502 96.4629
L480.758 96.7189
L478.525 98.3829
L478.154 98.5109
L477.781 98.5109
L477.41 99.1509
L477.037 99.2789
L476.666 99.5349
L476.294 99.4069
L475.55 99.6629
L475.177 99.5349
L474.806 99.6629
L474.433 100.303
L472.946 101.199
L472.573 101.071
L472.202 101.583
L471.829 101.455
L471.458 101.583
L470.714 102.095
L469.97 102.095
L469.598 102.479
L466.993 103.887
L466.622 103.887
L466.249 104.271
L465.506 104.015
L465.133 104.527
L464.762 104.527
L464.389 104.655
L462.901 106.191
L462.53 105.807
L461.785 105.807
L461.414 106.063
L461.041 106.063
L460.67 106.447
L460.297 106.575
L459.926 106.575
L459.182 106.831
L458.81 107.983
L458.438 107.599
L457.693 107.855
L457.322 107.343
L456.578 107.727
L455.834 107.983
L454.345 107.727
L453.974 107.855
L453.601 108.239
L452.857 108.751
L452.486 109.775
L452.113 109.775
L451.742 110.031
L447.649 110.671
L433.885 115.663
L432.025 115.663
L431.654 116.303
L428.306 116.815
L427.933 117.327
L426.073 117.327
L425.702 118.223
L424.958 118.479
L424.585 119.247
L423.47 119.247
L421.981 120.143
L421.61 120.143
L421.237 120.271
L420.866 120.783
L419.006 120.271
L418.633 120.399
L418.262 120.271
L417.145 120.271
L416.03 120.911
L414.914 121.039
L413.426 121.039
L412.682 121.295
L411.566 122.191
L410.822 122.191
L410.078 122.447
L409.705 122.831
L409.334 122.831
L408.218 124.367
L407.101 124.367
L406.73 125.519
L403.009 127.055
L401.894 127.183
L401.149 127.695
L400.405 127.695
L399.661 128.591
L398.546 128.591
L398.173 128.975
L397.43 129.231
L397.057 129.743
L395.198 130.383
L394.454 131.151
L394.454 131.151" style="fill:none;stroke:#bfbf00;stroke-linecap:square;stroke-width:2;"/>
   </g>
   <g id="line2d_6">
    <path clip-path="url(#pe067ca5dee)" d="
M614.677 36.6869
L613.933 36.9429
L613.189 36.5589
L612.446 37.7109
L611.702 37.8389
L610.958 37.8389
L610.214 37.5829
L609.47 37.7109
L608.726 37.9669
L607.981 38.2229
L607.237 39.1189
L605.749 39.7589
L605.006 40.3989
L604.262 40.6549
L603.518 40.6549
L602.774 40.9109
L602.03 42.0629
L601.285 42.8309
L600.17 43.4709
L591.242 49.4869
L590.497 50.6389
L589.753 50.5109
L589.009 51.9189
L588.265 51.2789
L587.522 52.4309
L586.778 52.1749
L586.034 52.6869
L585.29 53.7109
L583.802 56.5269
L583.057 56.0149
L582.313 56.1429
L581.569 55.8869
L580.825 54.4789
L580.082 54.6069
L579.338 54.3509
L578.221 55.3749
L576.734 56.5269
L575.99 56.0149
L575.246 56.0149
L574.502 56.1429
L573.758 56.5269
L573.014 57.0389
L572.269 58.1909
L571.525 58.7029
L569.666 63.6949
L568.921 63.8229" style="fill:none;stroke:#bf00bf;stroke-linecap:square;stroke-width:2;"/>
   </g>
   <g id="line2d_7">
    <path clip-path="url(#pe067ca5dee)" d="
M109.873 243.407
L109.873 13.0069" style="fill:none;stroke:#333333;stroke-linecap:square;"/>
   </g>
   <g id="line2d_8">
    <path clip-path="url(#pe067ca5dee)" d="
M121.778 243.407
L121.778 13.0069" style="fill:none;stroke:#cccccc;stroke-linecap:square;"/>
   </g>
   <g id="line2d_9">
    <path clip-path="url(#pe067ca5dee)" d="
M132.938 243.407
L132.938 13.0069" style="fill:none;stroke:#cccccc;stroke-linecap:square;"/>
   </g>
   <g id="line2d_10">
    <path clip-path="url(#pe067ca5dee)" d="
M145.214 243.407
L145.214 13.0069" style="fill:none;stroke:#cccccc;stroke-linecap:square;"/>
   </g>
   <g id="line2d_11">
    <path clip-path="url(#pe067ca5dee)" d="
M157.49 243.407
L157.49 13.0069" style="fill:none;stroke:#cccccc;stroke-linecap:square;"/>
   </g>
   <g id="line2d_12">
    <path clip-path="url(#pe067ca5dee)" d="
M162.325 243.407
L162.325 13.0069" style="fill:none;stroke:#cccccc;stroke-linecap:square;"/>
   </g>
   <g id="line2d_13">
    <path clip-path="url(#pe067ca5dee)" d="
M177.205 243.407
L177.205 13.0069" style="fill:none;stroke:#cccccc;stroke-linecap:square;"/>
   </g>
   <g id="line2d_14">
    <path clip-path="url(#pe067ca5dee)" d="
M189.854 243.407
L189.854 13.0069" style="fill:none;stroke:#cccccc;stroke-linecap:square;"/>
   </g>
   <g id="line2d_15">
    <path clip-path="url(#pe067ca5dee)" d="
M203.99 243.407
L203.99 13.0069" style="fill:none;stroke:#cccccc;stroke-linecap:square;"/>
   </g>
   <g id="line2d_16">
    <path clip-path="url(#pe067ca5dee)" d="
M215.149 243.407
L215.149 13.0069" style="fill:none;stroke:#cccccc;stroke-linecap:square;"/>
   </g>
   <g id="line2d_17">
    <path clip-path="url(#pe067ca5dee)" d="
M224.449 243.407
L224.449 13.0069" style="fill:none;stroke:#cccccc;stroke-linecap:square;"/>
   </g>
   <g id="line2d_18">
    <path clip-path="url(#pe067ca5dee)" d="
M236.726 243.407
L236.726 13.0069" style="fill:none;stroke:#cccccc;stroke-linecap:square;"/>
   </g>
   <g id="line2d_19">
    <path clip-path="url(#pe067ca5dee)" d="
M270.578 243.407
L270.578 13.0069" style="fill:none;stroke:#cccccc;stroke-linecap:square;"/>
   </g>
   <g id="line2d_20">
    <path clip-path="url(#pe067ca5dee)" d="
M263.882 243.407
L263.882 13.0069" style="fill:none;stroke:#333333;stroke-linecap:square;"/>
   </g>
   <g id="line2d_21">
    <path clip-path="url(#pe067ca5dee)" d="
M275.414 243.407
L275.414 13.0069" style="fill:none;stroke:#cccccc;stroke-linecap:square;"/>
   </g>
   <g id="line2d_22">
    <path clip-path="url(#pe067ca5dee)" d="
M285.829 243.407
L285.829 13.0069" style="fill:none;stroke:#cccccc;stroke-linecap:square;"/>
   </g>
   <g id="line2d_23">
    <path clip-path="url(#pe067ca5dee)" d="
M299.594 243.407
L299.594 13.0069" style="fill:none;stroke:#cccccc;stroke-linecap:square;"/>
   </g>
   <g id="line2d_24">
    <path clip-path="url(#pe067ca5dee)" d="
M323.774 243.407
L323.774 13.0069" style="fill:none;stroke:#cccccc;stroke-linecap:square;"/>
   </g>
   <g id="line2d_25">
    <path clip-path="url(#pe067ca5dee)" d="
M358.742 243.407
L358.742 13.0069" style="fill:none;stroke:#cccccc;stroke-linecap:square;"/>
   </g>
   <g id="line2d_26">
    <path clip-path="url(#pe067ca5dee)" d="
M392.594 243.407
L392.594 13.0069" style="fill:none;stroke:#cccccc;stroke-linecap:square;"/>
   </g>
   <g id="line2d_27">
    <path clip-path="url(#pe067ca5dee)" d="
M392.965 243.407
L392.965 13.0069" style="fill:none;stroke:#333333;stroke-linecap:square;"/>
   </g>
   <g id="line2d_28">
    <path clip-path="url(#pe067ca5dee)" d="
M455.09 243.407
L455.09 13.0069" style="fill:none;stroke:#cccccc;stroke-linecap:square;"/>
   </g>
   <g id="line2d_29">
    <path clip-path="url(#pe067ca5dee)" d="
M478.154 243.407
L478.154 13.0069" style="fill:none;stroke:#cccccc;stroke-linecap:square;"/>
   </g>
   <g id="line2d_30">
    <path clip-path="url(#pe067ca5dee)" d="
M494.522 243.407
L494.522 13.0069" style="fill:none;stroke:#333333;stroke-linecap:square;"/>
   </g>
   <g id="line2d_31">
    <path clip-path="url(#pe067ca5dee)" d="
M541.765 243.407
L541.765 13.0069" style="fill:none;stroke:#cccccc;stroke-linecap:square;"/>
   </g>
   <g id="line2d_32">
    <path clip-path="url(#pe067ca5dee)" d="
M560.366 243.407
L560.366 13.0069" style="fill:none;stroke:#cccccc;stroke-linecap:square;"/>
   </g>
   <g id="matplotlib.axis_1">
    <g id="xtick_1">
     <g id="line2d_33">
      <defs>
       <path d="
M0 0
L0 -4" id="m93b0483c22" style="stroke:#000000;stroke-width:0.5;"/>
      </defs>
      <g>
       <use style="stroke:#000000;stroke-width:0.5;" x="102.8055" xlink:href="#m93b0483c22" y="243.406875"/>
      </g>
     </g>
     <g id="line2d_34">
      <defs>
       <path d="
M0 0
L0 4" id="m741efc42ff" style="stroke:#000000;stroke-width:0.5;"/>
      </defs>
      <g>
       <use style="stroke:#000000;stroke-width:0.5;" x="102.8055" xlink:href="#m741efc42ff" y="13.006875"/>
      </g>
     </g>
     <g id="text_1">
      <!-- Aug 2014 -->
      <defs>
       <path d="
M12.4062 8.29688
L28.5156 8.29688
L28.5156 63.9219
L10.9844 60.4062
L10.9844 69.3906
L28.4219 72.9062
L38.2812 72.9062
L38.2812 8.29688
L54.3906 8.29688
L54.3906 0
L12.4062 0
z
" id="DejaVuSans-31"/>
       <path d="
M31.7812 66.4062
Q24.1719 66.4062 20.3281 58.9062
Q16.5 51.4219 16.5 36.375
Q16.5 21.3906 20.3281 13.8906
Q24.1719 6.39062 31.7812 6.39062
Q39.4531 6.39062 43.2812 13.8906
Q47.125 21.3906 47.125 36.375
Q47.125 51.4219 43.2812 58.9062
Q39.4531 66.4062 31.7812 66.4062
M31.7812 74.2188
Q44.0469 74.2188 50.5156 64.5156
Q56.9844 54.8281 56.9844 36.375
Q56.9844 17.9688 50.5156 8.26562
Q44.0469 -1.42188 31.7812 -1.42188
Q19.5312 -1.42188 13.0625 8.26562
Q6.59375 17.9688 6.59375 36.375
Q6.59375 54.8281 13.0625 64.5156
Q19.5312 74.2188 31.7812 74.2188" id="DejaVuSans-30"/>
       <path id="DejaVuSans-20"/>
       <path d="
M19.1875 8.29688
L53.6094 8.29688
L53.6094 0
L7.32812 0
L7.32812 8.29688
Q12.9375 14.1094 22.625 23.8906
Q32.3281 33.6875 34.8125 36.5312
Q39.5469 41.8438 41.4219 45.5312
Q43.3125 49.2188 43.3125 52.7812
Q43.3125 58.5938 39.2344 62.25
Q35.1562 65.9219 28.6094 65.9219
Q23.9688 65.9219 18.8125 64.3125
Q13.6719 62.7031 7.8125 59.4219
L7.8125 69.3906
Q13.7656 71.7812 18.9375 73
Q24.125 74.2188 28.4219 74.2188
Q39.75 74.2188 46.4844 68.5469
Q53.2188 62.8906 53.2188 53.4219
Q53.2188 48.9219 51.5312 44.8906
Q49.8594 40.875 45.4062 35.4062
Q44.1875 33.9844 37.6406 27.2188
Q31.1094 20.4531 19.1875 8.29688" id="DejaVuSans-32"/>
       <path d="
M34.1875 63.1875
L20.7969 26.9062
L47.6094 26.9062
z

M28.6094 72.9062
L39.7969 72.9062
L67.5781 0
L57.3281 0
L50.6875 18.7031
L17.8281 18.7031
L11.1875 0
L0.78125 0
z
" id="DejaVuSans-41"/>
       <path d="
M8.5 21.5781
L8.5 54.6875
L17.4844 54.6875
L17.4844 21.9219
Q17.4844 14.1562 20.5 10.2656
Q23.5312 6.39062 29.5938 6.39062
Q36.8594 6.39062 41.0781 11.0312
Q45.3125 15.6719 45.3125 23.6875
L45.3125 54.6875
L54.2969 54.6875
L54.2969 0
L45.3125 0
L45.3125 8.40625
Q42.0469 3.42188 37.7188 1
Q33.4062 -1.42188 27.6875 -1.42188
Q18.2656 -1.42188 13.375 4.4375
Q8.5 10.2969 8.5 21.5781
M31.1094 56
z
" id="DejaVuSans-75"/>
       <path d="
M45.4062 27.9844
Q45.4062 37.75 41.375 43.1094
Q37.3594 48.4844 30.0781 48.4844
Q22.8594 48.4844 18.8281 43.1094
Q14.7969 37.75 14.7969 27.9844
Q14.7969 18.2656 18.8281 12.8906
Q22.8594 7.51562 30.0781 7.51562
Q37.3594 7.51562 41.375 12.8906
Q45.4062 18.2656 45.4062 27.9844
M54.3906 6.78125
Q54.3906 -7.17188 48.1875 -13.9844
Q42 -20.7969 29.2031 -20.7969
Q24.4688 -20.7969 20.2656 -20.0938
Q16.0625 -19.3906 12.1094 -17.9219
L12.1094 -9.1875
Q16.0625 -11.3281 19.9219 -12.3438
Q23.7812 -13.375 27.7812 -13.375
Q36.625 -13.375 41.0156 -8.76562
Q45.4062 -4.15625 45.4062 5.17188
L45.4062 9.625
Q42.625 4.78125 38.2812 2.39062
Q33.9375 0 27.875 0
Q17.8281 0 11.6719 7.65625
Q5.51562 15.3281 5.51562 27.9844
Q5.51562 40.6719 11.6719 48.3281
Q17.8281 56 27.875 56
Q33.9375 56 38.2812 53.6094
Q42.625 51.2188 45.4062 46.3906
L45.4062 54.6875
L54.3906 54.6875
z
" id="DejaVuSans-67"/>
       <path d="
M37.7969 64.3125
L12.8906 25.3906
L37.7969 25.3906
z

M35.2031 72.9062
L47.6094 72.9062
L47.6094 25.3906
L58.0156 25.3906
L58.0156 17.1875
L47.6094 17.1875
L47.6094 0
L37.7969 0
L37.7969 17.1875
L4.89062 17.1875
L4.89062 26.7031
z
" id="DejaVuSans-34"/>
      </defs>
      <g transform="translate(106.11675 304.519375)rotate(-90.0)scale(0.12 -0.12)">
       <use xlink:href="#DejaVuSans-41"/>
       <use x="68.408203125" xlink:href="#DejaVuSans-75"/>
       <use x="131.787109375" xlink:href="#DejaVuSans-67"/>
       <use x="195.263671875" xlink:href="#DejaVuSans-20"/>
       <use x="227.05078125" xlink:href="#DejaVuSans-32"/>
       <use x="290.673828125" xlink:href="#DejaVuSans-30"/>
       <use x="354.296875" xlink:href="#DejaVuSans-31"/>
       <use x="417.919921875" xlink:href="#DejaVuSans-34"/>
      </g>
     </g>
    </g>
    <g id="xtick_2">
     <g id="line2d_35">
      <g>
       <use style="stroke:#000000;stroke-width:0.5;" x="171.2535" xlink:href="#m93b0483c22" y="243.406875"/>
      </g>
     </g>
     <g id="line2d_36">
      <g>
       <use style="stroke:#000000;stroke-width:0.5;" x="171.2535" xlink:href="#m741efc42ff" y="13.006875"/>
      </g>
     </g>
     <g id="text_2">
      <!-- Feb 2015 -->
      <defs>
       <path d="
M10.7969 72.9062
L49.5156 72.9062
L49.5156 64.5938
L19.8281 64.5938
L19.8281 46.7344
Q21.9688 47.4688 24.1094 47.8281
Q26.2656 48.1875 28.4219 48.1875
Q40.625 48.1875 47.75 41.5
Q54.8906 34.8125 54.8906 23.3906
Q54.8906 11.625 47.5625 5.09375
Q40.2344 -1.42188 26.9062 -1.42188
Q22.3125 -1.42188 17.5469 -0.640625
Q12.7969 0.140625 7.71875 1.70312
L7.71875 11.625
Q12.1094 9.23438 16.7969 8.0625
Q21.4844 6.89062 26.7031 6.89062
Q35.1562 6.89062 40.0781 11.3281
Q45.0156 15.7656 45.0156 23.3906
Q45.0156 31 40.0781 35.4375
Q35.1562 39.8906 26.7031 39.8906
Q22.75 39.8906 18.8125 39.0156
Q14.8906 38.1406 10.7969 36.2812
z
" id="DejaVuSans-35"/>
       <path d="
M9.8125 72.9062
L51.7031 72.9062
L51.7031 64.5938
L19.6719 64.5938
L19.6719 43.1094
L48.5781 43.1094
L48.5781 34.8125
L19.6719 34.8125
L19.6719 0
L9.8125 0
z
" id="DejaVuSans-46"/>
       <path d="
M56.2031 29.5938
L56.2031 25.2031
L14.8906 25.2031
Q15.4844 15.9219 20.4844 11.0625
Q25.4844 6.20312 34.4219 6.20312
Q39.5938 6.20312 44.4531 7.46875
Q49.3125 8.73438 54.1094 11.2812
L54.1094 2.78125
Q49.2656 0.734375 44.1875 -0.34375
Q39.1094 -1.42188 33.8906 -1.42188
Q20.7969 -1.42188 13.1562 6.1875
Q5.51562 13.8125 5.51562 26.8125
Q5.51562 40.2344 12.7656 48.1094
Q20.0156 56 32.3281 56
Q43.3594 56 49.7812 48.8906
Q56.2031 41.7969 56.2031 29.5938
M47.2188 32.2344
Q47.125 39.5938 43.0938 43.9844
Q39.0625 48.3906 32.4219 48.3906
Q24.9062 48.3906 20.3906 44.1406
Q15.875 39.8906 15.1875 32.1719
z
" id="DejaVuSans-65"/>
       <path d="
M48.6875 27.2969
Q48.6875 37.2031 44.6094 42.8438
Q40.5312 48.4844 33.4062 48.4844
Q26.2656 48.4844 22.1875 42.8438
Q18.1094 37.2031 18.1094 27.2969
Q18.1094 17.3906 22.1875 11.75
Q26.2656 6.10938 33.4062 6.10938
Q40.5312 6.10938 44.6094 11.75
Q48.6875 17.3906 48.6875 27.2969
M18.1094 46.3906
Q20.9531 51.2656 25.2656 53.625
Q29.5938 56 35.5938 56
Q45.5625 56 51.7812 48.0938
Q58.0156 40.1875 58.0156 27.2969
Q58.0156 14.4062 51.7812 6.48438
Q45.5625 -1.42188 35.5938 -1.42188
Q29.5938 -1.42188 25.2656 0.953125
Q20.9531 3.32812 18.1094 8.20312
L18.1094 0
L9.07812 0
L9.07812 75.9844
L18.1094 75.9844
z
" id="DejaVuSans-62"/>
      </defs>
      <g transform="translate(174.56475 301.95625)rotate(-90.0)scale(0.12 -0.12)">
       <use xlink:href="#DejaVuSans-46"/>
       <use x="52.01953125" xlink:href="#DejaVuSans-65"/>
       <use x="113.54296875" xlink:href="#DejaVuSans-62"/>
       <use x="177.01953125" xlink:href="#DejaVuSans-20"/>
       <use x="208.806640625" xlink:href="#DejaVuSans-32"/>
       <use x="272.4296875" xlink:href="#DejaVuSans-30"/>
       <use x="336.052734375" xlink:href="#DejaVuSans-31"/>
       <use x="399.67578125" xlink:href="#DejaVuSans-35"/>
      </g>
     </g>
    </g>
    <g id="xtick_3">
     <g id="line2d_37">
      <g>
       <use style="stroke:#000000;stroke-width:0.5;" x="238.5855" xlink:href="#m93b0483c22" y="243.406875"/>
      </g>
     </g>
     <g id="line2d_38">
      <g>
       <use style="stroke:#000000;stroke-width:0.5;" x="238.5855" xlink:href="#m741efc42ff" y="13.006875"/>
      </g>
     </g>
     <g id="text_3">
      <!-- Aug 2015 -->
      <g transform="translate(241.89675 304.144375)rotate(-90.0)scale(0.12 -0.12)">
       <use xlink:href="#DejaVuSans-41"/>
       <use x="68.408203125" xlink:href="#DejaVuSans-75"/>
       <use x="131.787109375" xlink:href="#DejaVuSans-67"/>
       <use x="195.263671875" xlink:href="#DejaVuSans-20"/>
       <use x="227.05078125" xlink:href="#DejaVuSans-32"/>
       <use x="290.673828125" xlink:href="#DejaVuSans-30"/>
       <use x="354.296875" xlink:href="#DejaVuSans-31"/>
       <use x="417.919921875" xlink:href="#DejaVuSans-35"/>
      </g>
     </g>
    </g>
    <g id="xtick_4">
     <g id="line2d_39">
      <g>
       <use style="stroke:#000000;stroke-width:0.5;" x="307.0335" xlink:href="#m93b0483c22" y="243.406875"/>
      </g>
     </g>
     <g id="line2d_40">
      <g>
       <use style="stroke:#000000;stroke-width:0.5;" x="307.0335" xlink:href="#m741efc42ff" y="13.006875"/>
      </g>
     </g>
     <g id="text_4">
      <!-- Feb 2016 -->
      <defs>
       <path d="
M33.0156 40.375
Q26.375 40.375 22.4844 35.8281
Q18.6094 31.2969 18.6094 23.3906
Q18.6094 15.5312 22.4844 10.9531
Q26.375 6.39062 33.0156 6.39062
Q39.6562 6.39062 43.5312 10.9531
Q47.4062 15.5312 47.4062 23.3906
Q47.4062 31.2969 43.5312 35.8281
Q39.6562 40.375 33.0156 40.375
M52.5938 71.2969
L52.5938 62.3125
Q48.875 64.0625 45.0938 64.9844
Q41.3125 65.9219 37.5938 65.9219
Q27.8281 65.9219 22.6719 59.3281
Q17.5312 52.7344 16.7969 39.4062
Q19.6719 43.6562 24.0156 45.9219
Q28.375 48.1875 33.5938 48.1875
Q44.5781 48.1875 50.9531 41.5156
Q57.3281 34.8594 57.3281 23.3906
Q57.3281 12.1562 50.6875 5.35938
Q44.0469 -1.42188 33.0156 -1.42188
Q20.3594 -1.42188 13.6719 8.26562
Q6.98438 17.9688 6.98438 36.375
Q6.98438 53.6562 15.1875 63.9375
Q23.3906 74.2188 37.2031 74.2188
Q40.9219 74.2188 44.7031 73.4844
Q48.4844 72.75 52.5938 71.2969" id="DejaVuSans-36"/>
      </defs>
      <g transform="translate(310.34475 302.24875)rotate(-90.0)scale(0.12 -0.12)">
       <use xlink:href="#DejaVuSans-46"/>
       <use x="52.01953125" xlink:href="#DejaVuSans-65"/>
       <use x="113.54296875" xlink:href="#DejaVuSans-62"/>
       <use x="177.01953125" xlink:href="#DejaVuSans-20"/>
       <use x="208.806640625" xlink:href="#DejaVuSans-32"/>
       <use x="272.4296875" xlink:href="#DejaVuSans-30"/>
       <use x="336.052734375" xlink:href="#DejaVuSans-31"/>
       <use x="399.67578125" xlink:href="#DejaVuSans-36"/>
      </g>
     </g>
    </g>
    <g id="xtick_5">
     <g id="line2d_41">
      <g>
       <use style="stroke:#000000;stroke-width:0.5;" x="374.7375" xlink:href="#m93b0483c22" y="243.406875"/>
      </g>
     </g>
     <g id="line2d_42">
      <g>
       <use style="stroke:#000000;stroke-width:0.5;" x="374.7375" xlink:href="#m741efc42ff" y="13.006875"/>
      </g>
     </g>
     <g id="text_5">
      <!-- Aug 2016 -->
      <g transform="translate(378.04875 304.436875)rotate(-90.0)scale(0.12 -0.12)">
       <use xlink:href="#DejaVuSans-41"/>
       <use x="68.408203125" xlink:href="#DejaVuSans-75"/>
       <use x="131.787109375" xlink:href="#DejaVuSans-67"/>
       <use x="195.263671875" xlink:href="#DejaVuSans-20"/>
       <use x="227.05078125" xlink:href="#DejaVuSans-32"/>
       <use x="290.673828125" xlink:href="#DejaVuSans-30"/>
       <use x="354.296875" xlink:href="#DejaVuSans-31"/>
       <use x="417.919921875" xlink:href="#DejaVuSans-36"/>
      </g>
     </g>
    </g>
    <g id="xtick_6">
     <g id="line2d_43">
      <g>
       <use style="stroke:#000000;stroke-width:0.5;" x="443.1855" xlink:href="#m93b0483c22" y="243.406875"/>
      </g>
     </g>
     <g id="line2d_44">
      <g>
       <use style="stroke:#000000;stroke-width:0.5;" x="443.1855" xlink:href="#m741efc42ff" y="13.006875"/>
      </g>
     </g>
     <g id="text_6">
      <!-- Feb 2017 -->
      <defs>
       <path d="
M8.20312 72.9062
L55.0781 72.9062
L55.0781 68.7031
L28.6094 0
L18.3125 0
L43.2188 64.5938
L8.20312 64.5938
z
" id="DejaVuSans-37"/>
      </defs>
      <g transform="translate(446.49675 301.97875)rotate(-90.0)scale(0.12 -0.12)">
       <use xlink:href="#DejaVuSans-46"/>
       <use x="52.01953125" xlink:href="#DejaVuSans-65"/>
       <use x="113.54296875" xlink:href="#DejaVuSans-62"/>
       <use x="177.01953125" xlink:href="#DejaVuSans-20"/>
       <use x="208.806640625" xlink:href="#DejaVuSans-32"/>
       <use x="272.4296875" xlink:href="#DejaVuSans-30"/>
       <use x="336.052734375" xlink:href="#DejaVuSans-31"/>
       <use x="399.67578125" xlink:href="#DejaVuSans-37"/>
      </g>
     </g>
    </g>
    <g id="xtick_7">
     <g id="line2d_45">
      <g>
       <use style="stroke:#000000;stroke-width:0.5;" x="510.5175" xlink:href="#m93b0483c22" y="243.406875"/>
      </g>
     </g>
     <g id="line2d_46">
      <g>
       <use style="stroke:#000000;stroke-width:0.5;" x="510.5175" xlink:href="#m741efc42ff" y="13.006875"/>
      </g>
     </g>
     <g id="text_7">
      <!-- Aug 2017 -->
      <g transform="translate(513.82875 304.166875)rotate(-90.0)scale(0.12 -0.12)">
       <use xlink:href="#DejaVuSans-41"/>
       <use x="68.408203125" xlink:href="#DejaVuSans-75"/>
       <use x="131.787109375" xlink:href="#DejaVuSans-67"/>
       <use x="195.263671875" xlink:href="#DejaVuSans-20"/>
       <use x="227.05078125" xlink:href="#DejaVuSans-32"/>
       <use x="290.673828125" xlink:href="#DejaVuSans-30"/>
       <use x="354.296875" xlink:href="#DejaVuSans-31"/>
       <use x="417.919921875" xlink:href="#DejaVuSans-37"/>
      </g>
     </g>
    </g>
    <g id="xtick_8">
     <g id="line2d_47">
      <g>
       <use style="stroke:#000000;stroke-width:0.5;" x="578.9655" xlink:href="#m93b0483c22" y="243.406875"/>
      </g>
     </g>
     <g id="line2d_48">
      <g>
       <use style="stroke:#000000;stroke-width:0.5;" x="578.9655" xlink:href="#m741efc42ff" y="13.006875"/>
      </g>
     </g>
     <g id="text_8">
      <!-- Feb 2018 -->
      <defs>
       <path d="
M31.7812 34.625
Q24.75 34.625 20.7188 30.8594
Q16.7031 27.0938 16.7031 20.5156
Q16.7031 13.9219 20.7188 10.1562
Q24.75 6.39062 31.7812 6.39062
Q38.8125 6.39062 42.8594 10.1719
Q46.9219 13.9688 46.9219 20.5156
Q46.9219 27.0938 42.8906 30.8594
Q38.875 34.625 31.7812 34.625
M21.9219 38.8125
Q15.5781 40.375 12.0312 44.7188
Q8.5 49.0781 8.5 55.3281
Q8.5 64.0625 14.7188 69.1406
Q20.9531 74.2188 31.7812 74.2188
Q42.6719 74.2188 48.875 69.1406
Q55.0781 64.0625 55.0781 55.3281
Q55.0781 49.0781 51.5312 44.7188
Q48 40.375 41.7031 38.8125
Q48.8281 37.1562 52.7969 32.3125
Q56.7812 27.4844 56.7812 20.5156
Q56.7812 9.90625 50.3125 4.23438
Q43.8438 -1.42188 31.7812 -1.42188
Q19.7344 -1.42188 13.25 4.23438
Q6.78125 9.90625 6.78125 20.5156
Q6.78125 27.4844 10.7812 32.3125
Q14.7969 37.1562 21.9219 38.8125
M18.3125 54.3906
Q18.3125 48.7344 21.8438 45.5625
Q25.3906 42.3906 31.7812 42.3906
Q38.1406 42.3906 41.7188 45.5625
Q45.3125 48.7344 45.3125 54.3906
Q45.3125 60.0625 41.7188 63.2344
Q38.1406 66.4062 31.7812 66.4062
Q25.3906 66.4062 21.8438 63.2344
Q18.3125 60.0625 18.3125 54.3906" id="DejaVuSans-38"/>
      </defs>
      <g transform="translate(582.27675 302.183125)rotate(-90.0)scale(0.12 -0.12)">
       <use xlink:href="#DejaVuSans-46"/>
       <use x="52.01953125" xlink:href="#DejaVuSans-65"/>
       <use x="113.54296875" xlink:href="#DejaVuSans-62"/>
       <use x="177.01953125" xlink:href="#DejaVuSans-20"/>
       <use x="208.806640625" xlink:href="#DejaVuSans-32"/>
       <use x="272.4296875" xlink:href="#DejaVuSans-30"/>
       <use x="336.052734375" xlink:href="#DejaVuSans-31"/>
       <use x="399.67578125" xlink:href="#DejaVuSans-38"/>
      </g>
     </g>
    </g>
   </g>
   <g id="matplotlib.axis_2">
    <g id="ytick_1">
     <g id="line2d_49">
      <defs>
       <path d="
M0 0
L4 0" id="m728421d6d4" style="stroke:#000000;stroke-width:0.5;"/>
      </defs>
      <g>
       <use style="stroke:#000000;stroke-width:0.5;" x="56.6775" xlink:href="#m728421d6d4" y="243.406875"/>
      </g>
     </g>
     <g id="line2d_50">
      <defs>
       <path d="
M0 0
L-4 0" id="mcb0005524f" style="stroke:#000000;stroke-width:0.5;"/>
      </defs>
      <g>
       <use style="stroke:#000000;stroke-width:0.5;" x="614.6775" xlink:href="#mcb0005524f" y="243.406875"/>
      </g>
     </g>
     <g id="text_9">
      <!-- 200 -->
      <g transform="translate(31.44875 246.718125)scale(0.12 -0.12)">
       <use xlink:href="#DejaVuSans-32"/>
       <use x="63.623046875" xlink:href="#DejaVuSans-30"/>
       <use x="127.24609375" xlink:href="#DejaVuSans-30"/>
      </g>
     </g>
    </g>
    <g id="ytick_2">
     <g id="line2d_51">
      <g>
       <use style="stroke:#000000;stroke-width:0.5;" x="56.6775" xlink:href="#m728421d6d4" y="217.806875"/>
      </g>
     </g>
     <g id="line2d_52">
      <g>
       <use style="stroke:#000000;stroke-width:0.5;" x="614.6775" xlink:href="#mcb0005524f" y="217.806875"/>
      </g>
     </g>
     <g id="text_10">
      <!-- 400 -->
      <g transform="translate(31.15625 221.118125)scale(0.12 -0.12)">
       <use xlink:href="#DejaVuSans-34"/>
       <use x="63.623046875" xlink:href="#DejaVuSans-30"/>
       <use x="127.24609375" xlink:href="#DejaVuSans-30"/>
      </g>
     </g>
    </g>
    <g id="ytick_3">
     <g id="line2d_53">
      <g>
       <use style="stroke:#000000;stroke-width:0.5;" x="56.6775" xlink:href="#m728421d6d4" y="192.206875"/>
      </g>
     </g>
     <g id="line2d_54">
      <g>
       <use style="stroke:#000000;stroke-width:0.5;" x="614.6775" xlink:href="#mcb0005524f" y="192.206875"/>
      </g>
     </g>
     <g id="text_11">
      <!-- 600 -->
      <g transform="translate(31.4075 195.518125)scale(0.12 -0.12)">
       <use xlink:href="#DejaVuSans-36"/>
       <use x="63.623046875" xlink:href="#DejaVuSans-30"/>
       <use x="127.24609375" xlink:href="#DejaVuSans-30"/>
      </g>
     </g>
    </g>
    <g id="ytick_4">
     <g id="line2d_55">
      <g>
       <use style="stroke:#000000;stroke-width:0.5;" x="56.6775" xlink:href="#m728421d6d4" y="166.606875"/>
      </g>
     </g>
     <g id="line2d_56">
      <g>
       <use style="stroke:#000000;stroke-width:0.5;" x="614.6775" xlink:href="#mcb0005524f" y="166.606875"/>
      </g>
     </g>
     <g id="text_12">
      <!-- 800 -->
      <g transform="translate(31.383125 169.918125)scale(0.12 -0.12)">
       <use xlink:href="#DejaVuSans-38"/>
       <use x="63.623046875" xlink:href="#DejaVuSans-30"/>
       <use x="127.24609375" xlink:href="#DejaVuSans-30"/>
      </g>
     </g>
    </g>
    <g id="ytick_5">
     <g id="line2d_57">
      <g>
       <use style="stroke:#000000;stroke-width:0.5;" x="56.6775" xlink:href="#m728421d6d4" y="141.006875"/>
      </g>
     </g>
     <g id="line2d_58">
      <g>
       <use style="stroke:#000000;stroke-width:0.5;" x="614.6775" xlink:href="#mcb0005524f" y="141.006875"/>
      </g>
     </g>
     <g id="text_13">
      <!-- 1000 -->
      <g transform="translate(24.2525 144.318125)scale(0.12 -0.12)">
       <use xlink:href="#DejaVuSans-31"/>
       <use x="63.623046875" xlink:href="#DejaVuSans-30"/>
       <use x="127.24609375" xlink:href="#DejaVuSans-30"/>
       <use x="190.869140625" xlink:href="#DejaVuSans-30"/>
      </g>
     </g>
    </g>
    <g id="ytick_6">
     <g id="line2d_59">
      <g>
       <use style="stroke:#000000;stroke-width:0.5;" x="56.6775" xlink:href="#m728421d6d4" y="115.406875"/>
      </g>
     </g>
     <g id="line2d_60">
      <g>
       <use style="stroke:#000000;stroke-width:0.5;" x="614.6775" xlink:href="#mcb0005524f" y="115.406875"/>
      </g>
     </g>
     <g id="text_14">
      <!-- 1200 -->
      <g transform="translate(24.2525 118.718125)scale(0.12 -0.12)">
       <use xlink:href="#DejaVuSans-31"/>
       <use x="63.623046875" xlink:href="#DejaVuSans-32"/>
       <use x="127.24609375" xlink:href="#DejaVuSans-30"/>
       <use x="190.869140625" xlink:href="#DejaVuSans-30"/>
      </g>
     </g>
    </g>
    <g id="ytick_7">
     <g id="line2d_61">
      <g>
       <use style="stroke:#000000;stroke-width:0.5;" x="56.6775" xlink:href="#m728421d6d4" y="89.806875"/>
      </g>
     </g>
     <g id="line2d_62">
      <g>
       <use style="stroke:#000000;stroke-width:0.5;" x="614.6775" xlink:href="#mcb0005524f" y="89.806875"/>
      </g>
     </g>
     <g id="text_15">
      <!-- 1400 -->
      <g transform="translate(24.2525 93.118125)scale(0.12 -0.12)">
       <use xlink:href="#DejaVuSans-31"/>
       <use x="63.623046875" xlink:href="#DejaVuSans-34"/>
       <use x="127.24609375" xlink:href="#DejaVuSans-30"/>
       <use x="190.869140625" xlink:href="#DejaVuSans-30"/>
      </g>
     </g>
    </g>
    <g id="ytick_8">
     <g id="line2d_63">
      <g>
       <use style="stroke:#000000;stroke-width:0.5;" x="56.6775" xlink:href="#m728421d6d4" y="64.206875"/>
      </g>
     </g>
     <g id="line2d_64">
      <g>
       <use style="stroke:#000000;stroke-width:0.5;" x="614.6775" xlink:href="#mcb0005524f" y="64.206875"/>
      </g>
     </g>
     <g id="text_16">
      <!-- 1600 -->
      <g transform="translate(24.2525 67.518125)scale(0.12 -0.12)">
       <use xlink:href="#DejaVuSans-31"/>
       <use x="63.623046875" xlink:href="#DejaVuSans-36"/>
       <use x="127.24609375" xlink:href="#DejaVuSans-30"/>
       <use x="190.869140625" xlink:href="#DejaVuSans-30"/>
      </g>
     </g>
    </g>
    <g id="ytick_9">
     <g id="line2d_65">
      <g>
       <use style="stroke:#000000;stroke-width:0.5;" x="56.6775" xlink:href="#m728421d6d4" y="38.606875"/>
      </g>
     </g>
     <g id="line2d_66">
      <g>
       <use style="stroke:#000000;stroke-width:0.5;" x="614.6775" xlink:href="#mcb0005524f" y="38.606875"/>
      </g>
     </g>
     <g id="text_17">
      <!-- 1800 -->
      <g transform="translate(24.2525 41.918125)scale(0.12 -0.12)">
       <use xlink:href="#DejaVuSans-31"/>
       <use x="63.623046875" xlink:href="#DejaVuSans-38"/>
       <use x="127.24609375" xlink:href="#DejaVuSans-30"/>
       <use x="190.869140625" xlink:href="#DejaVuSans-30"/>
      </g>
     </g>
    </g>
    <g id="ytick_10">
     <g id="line2d_67">
      <g>
       <use style="stroke:#000000;stroke-width:0.5;" x="56.6775" xlink:href="#m728421d6d4" y="13.006875"/>
      </g>
     </g>
     <g id="line2d_68">
      <g>
       <use style="stroke:#000000;stroke-width:0.5;" x="614.6775" xlink:href="#mcb0005524f" y="13.006875"/>
      </g>
     </g>
     <g id="text_18">
      <!-- 2000 -->
      <g transform="translate(23.81375 16.318125)scale(0.12 -0.12)">
       <use xlink:href="#DejaVuSans-32"/>
       <use x="63.623046875" xlink:href="#DejaVuSans-30"/>
       <use x="127.24609375" xlink:href="#DejaVuSans-30"/>
       <use x="190.869140625" xlink:href="#DejaVuSans-30"/>
      </g>
     </g>
    </g>
    <g id="text_19">
     <!-- Number of Tagged Packages -->
     <defs>
      <path d="
M9.8125 72.9062
L23.0938 72.9062
L55.4219 11.9219
L55.4219 72.9062
L64.9844 72.9062
L64.9844 0
L51.7031 0
L19.3906 60.9844
L19.3906 0
L9.8125 0
z
" id="DejaVuSans-4e"/>
      <path d="
M19.6719 64.7969
L19.6719 37.4062
L32.0781 37.4062
Q38.9688 37.4062 42.7188 40.9688
Q46.4844 44.5312 46.4844 51.125
Q46.4844 57.6719 42.7188 61.2344
Q38.9688 64.7969 32.0781 64.7969
z

M9.8125 72.9062
L32.0781 72.9062
Q44.3438 72.9062 50.6094 67.3594
Q56.8906 61.8125 56.8906 51.125
Q56.8906 40.3281 50.6094 34.8125
Q44.3438 29.2969 32.0781 29.2969
L19.6719 29.2969
L19.6719 0
L9.8125 0
z
" id="DejaVuSans-50"/>
      <path d="
M30.6094 48.3906
Q23.3906 48.3906 19.1875 42.75
Q14.9844 37.1094 14.9844 27.2969
Q14.9844 17.4844 19.1562 11.8438
Q23.3438 6.20312 30.6094 6.20312
Q37.7969 6.20312 41.9844 11.8594
Q46.1875 17.5312 46.1875 27.2969
Q46.1875 37.0156 41.9844 42.7031
Q37.7969 48.3906 30.6094 48.3906
M30.6094 56
Q42.3281 56 49.0156 48.375
Q55.7188 40.7656 55.7188 27.2969
Q55.7188 13.875 49.0156 6.21875
Q42.3281 -1.42188 30.6094 -1.42188
Q18.8438 -1.42188 12.1719 6.21875
Q5.51562 13.875 5.51562 27.2969
Q5.51562 40.7656 12.1719 48.375
Q18.8438 56 30.6094 56" id="DejaVuSans-6f"/>
      <path d="
M52 44.1875
Q55.375 50.25 60.0625 53.125
Q64.75 56 71.0938 56
Q79.6406 56 84.2812 50.0156
Q88.9219 44.0469 88.9219 33.0156
L88.9219 0
L79.8906 0
L79.8906 32.7188
Q79.8906 40.5781 77.0938 44.375
Q74.3125 48.1875 68.6094 48.1875
Q61.625 48.1875 57.5625 43.5469
Q53.5156 38.9219 53.5156 30.9062
L53.5156 0
L44.4844 0
L44.4844 32.7188
Q44.4844 40.625 41.7031 44.4062
Q38.9219 48.1875 33.1094 48.1875
Q26.2188 48.1875 22.1562 43.5312
Q18.1094 38.875 18.1094 30.9062
L18.1094 0
L9.07812 0
L9.07812 54.6875
L18.1094 54.6875
L18.1094 46.1875
Q21.1875 51.2188 25.4844 53.6094
Q29.7812 56 35.6875 56
Q41.6562 56 45.8281 52.9688
Q50 49.9531 52 44.1875" id="DejaVuSans-6d"/>
      <path d="
M9.07812 75.9844
L18.1094 75.9844
L18.1094 31.1094
L44.9219 54.6875
L56.3906 54.6875
L27.3906 29.1094
L57.625 0
L45.9062 0
L18.1094 26.7031
L18.1094 0
L9.07812 0
z
" id="DejaVuSans-6b"/>
      <path d="
M34.2812 27.4844
Q23.3906 27.4844 19.1875 25
Q14.9844 22.5156 14.9844 16.5
Q14.9844 11.7188 18.1406 8.90625
Q21.2969 6.10938 26.7031 6.10938
Q34.1875 6.10938 38.7031 11.4062
Q43.2188 16.7031 43.2188 25.4844
L43.2188 27.4844
z

M52.2031 31.2031
L52.2031 0
L43.2188 0
L43.2188 8.29688
Q40.1406 3.32812 35.5469 0.953125
Q30.9531 -1.42188 24.3125 -1.42188
Q15.9219 -1.42188 10.9531 3.29688
Q6 8.01562 6 15.9219
Q6 25.1406 12.1719 29.8281
Q18.3594 34.5156 30.6094 34.5156
L43.2188 34.5156
L43.2188 35.4062
Q43.2188 41.6094 39.1406 45
Q35.0625 48.3906 27.6875 48.3906
Q23 48.3906 18.5469 47.2656
Q14.1094 46.1406 10.0156 43.8906
L10.0156 52.2031
Q14.9375 54.1094 19.5781 55.0469
Q24.2188 56 28.6094 56
Q40.4844 56 46.3438 49.8438
Q52.2031 43.7031 52.2031 31.2031" id="DejaVuSans-61"/>
      <path d="
M37.1094 75.9844
L37.1094 68.5
L28.5156 68.5
Q23.6875 68.5 21.7969 66.5469
Q19.9219 64.5938 19.9219 59.5156
L19.9219 54.6875
L34.7188 54.6875
L34.7188 47.7031
L19.9219 47.7031
L19.9219 0
L10.8906 0
L10.8906 47.7031
L2.29688 47.7031
L2.29688 54.6875
L10.8906 54.6875
L10.8906 58.5
Q10.8906 67.625 15.1406 71.7969
Q19.3906 75.9844 28.6094 75.9844
z
" id="DejaVuSans-66"/>
      <path d="
M45.4062 46.3906
L45.4062 75.9844
L54.3906 75.9844
L54.3906 0
L45.4062 0
L45.4062 8.20312
Q42.5781 3.32812 38.25 0.953125
Q33.9375 -1.42188 27.875 -1.42188
Q17.9688 -1.42188 11.7344 6.48438
Q5.51562 14.4062 5.51562 27.2969
Q5.51562 40.1875 11.7344 48.0938
Q17.9688 56 27.875 56
Q33.9375 56 38.25 53.625
Q42.5781 51.2656 45.4062 46.3906
M14.7969 27.2969
Q14.7969 17.3906 18.875 11.75
Q22.9531 6.10938 30.0781 6.10938
Q37.2031 6.10938 41.2969 11.75
Q45.4062 17.3906 45.4062 27.2969
Q45.4062 37.2031 41.2969 42.8438
Q37.2031 48.4844 30.0781 48.4844
Q22.9531 48.4844 18.875 42.8438
Q14.7969 37.2031 14.7969 27.2969" id="DejaVuSans-64"/>
      <path d="
M41.1094 46.2969
Q39.5938 47.1719 37.8125 47.5781
Q36.0312 48 33.8906 48
Q26.2656 48 22.1875 43.0469
Q18.1094 38.0938 18.1094 28.8125
L18.1094 0
L9.07812 0
L9.07812 54.6875
L18.1094 54.6875
L18.1094 46.1875
Q20.9531 51.1719 25.4844 53.5781
Q30.0312 56 36.5312 56
Q37.4531 56 38.5781 55.875
Q39.7031 55.7656 41.0625 55.5156
z
" id="DejaVuSans-72"/>
      <path d="
M48.7812 52.5938
L48.7812 44.1875
Q44.9688 46.2969 41.1406 47.3438
Q37.3125 48.3906 33.4062 48.3906
Q24.6562 48.3906 19.8125 42.8438
Q14.9844 37.3125 14.9844 27.2969
Q14.9844 17.2812 19.8125 11.7344
Q24.6562 6.20312 33.4062 6.20312
Q37.3125 6.20312 41.1406 7.25
Q44.9688 8.29688 48.7812 10.4062
L48.7812 2.09375
Q45.0156 0.34375 40.9844 -0.53125
Q36.9688 -1.42188 32.4219 -1.42188
Q20.0625 -1.42188 12.7812 6.34375
Q5.51562 14.1094 5.51562 27.2969
Q5.51562 40.6719 12.8594 48.3281
Q20.2188 56 33.0156 56
Q37.1562 56 41.1094 55.1406
Q45.0625 54.2969 48.7812 52.5938" id="DejaVuSans-63"/>
      <path d="
M44.2812 53.0781
L44.2812 44.5781
Q40.4844 46.5312 36.375 47.5
Q32.2812 48.4844 27.875 48.4844
Q21.1875 48.4844 17.8438 46.4375
Q14.5 44.3906 14.5 40.2812
Q14.5 37.1562 16.8906 35.375
Q19.2812 33.5938 26.5156 31.9844
L29.5938 31.2969
Q39.1562 29.25 43.1875 25.5156
Q47.2188 21.7812 47.2188 15.0938
Q47.2188 7.46875 41.1875 3.01562
Q35.1562 -1.42188 24.6094 -1.42188
Q20.2188 -1.42188 15.4531 -0.5625
Q10.6875 0.296875 5.42188 2
L5.42188 11.2812
Q10.4062 8.6875 15.2344 7.39062
Q20.0625 6.10938 24.8125 6.10938
Q31.1562 6.10938 34.5625 8.28125
Q37.9844 10.4531 37.9844 14.4062
Q37.9844 18.0625 35.5156 20.0156
Q33.0625 21.9688 24.7031 23.7812
L21.5781 24.5156
Q13.2344 26.2656 9.51562 29.9062
Q5.8125 33.5469 5.8125 39.8906
Q5.8125 47.6094 11.2812 51.7969
Q16.75 56 26.8125 56
Q31.7812 56 36.1719 55.2656
Q40.5781 54.5469 44.2812 53.0781" id="DejaVuSans-73"/>
      <path d="
M-0.296875 72.9062
L61.375 72.9062
L61.375 64.5938
L35.5 64.5938
L35.5 0
L25.5938 0
L25.5938 64.5938
L-0.296875 64.5938
z
" id="DejaVuSans-54"/>
     </defs>
     <g transform="translate(16.318125 212.98875)rotate(-90.0)scale(0.12 -0.12)">
      <use xlink:href="#DejaVuSans-4e"/>
      <use x="74.8046875" xlink:href="#DejaVuSans-75"/>
      <use x="138.18359375" xlink:href="#DejaVuSans-6d"/>
      <use x="235.595703125" xlink:href="#DejaVuSans-62"/>
      <use x="299.072265625" xlink:href="#DejaVuSans-65"/>
      <use x="360.595703125" xlink:href="#DejaVuSans-72"/>
      <use x="401.708984375" xlink:href="#DejaVuSans-20"/>
      <use x="433.49609375" xlink:href="#DejaVuSans-6f"/>
      <use x="494.677734375" xlink:href="#DejaVuSans-66"/>
      <use x="529.8828125" xlink:href="#DejaVuSans-20"/>
      <use x="561.669921875" xlink:href="#DejaVuSans-54"/>
      <use x="606.25390625" xlink:href="#DejaVuSans-61"/>
      <use x="667.533203125" xlink:href="#DejaVuSans-67"/>
      <use x="731.009765625" xlink:href="#DejaVuSans-67"/>
      <use x="794.486328125" xlink:href="#DejaVuSans-65"/>
      <use x="856.009765625" xlink:href="#DejaVuSans-64"/>
      <use x="919.486328125" xlink:href="#DejaVuSans-20"/>
      <use x="951.2734375" xlink:href="#DejaVuSans-50"/>
      <use x="1007.07617188" xlink:href="#DejaVuSans-61"/>
      <use x="1068.35546875" xlink:href="#DejaVuSans-63"/>
      <use x="1123.3359375" xlink:href="#DejaVuSans-6b"/>
      <use x="1179.49609375" xlink:href="#DejaVuSans-61"/>
      <use x="1240.77539062" xlink:href="#DejaVuSans-67"/>
      <use x="1304.25195312" xlink:href="#DejaVuSans-65"/>
      <use x="1365.77539062" xlink:href="#DejaVuSans-73"/>
     </g>
    </g>
   </g>
   <g id="patch_3">
    <path d="
M56.6775 13.0069
L614.677 13.0069" style="fill:none;stroke:#000000;"/>
   </g>
   <g id="patch_4">
    <path d="
M614.678 243.407
L614.678 13.0069" style="fill:none;stroke:#000000;"/>
   </g>
   <g id="patch_5">
    <path d="
M56.6775 243.407
L614.677 243.407" style="fill:none;stroke:#000000;"/>
   </g>
   <g id="patch_6">
    <path d="
M56.6775 243.407
L56.6775 13.0069" style="fill:none;stroke:#000000;"/>
   </g>
   <g id="text_20">
    <g id="patch_7">
     <path d="
M103.036 172.199
L116.711 172.199
L116.711 137.811
L103.036 137.811
z
" style="fill:#ffffff;stroke:#ffffff;"/>
    </g>
    <!-- v0.3.0 -->
    <defs>
     <path d="
M40.5781 39.3125
Q47.6562 37.7969 51.625 33
Q55.6094 28.2188 55.6094 21.1875
Q55.6094 10.4062 48.1875 4.48438
Q40.7656 -1.42188 27.0938 -1.42188
Q22.5156 -1.42188 17.6562 -0.515625
Q12.7969 0.390625 7.625 2.20312
L7.625 11.7188
Q11.7188 9.32812 16.5938 8.10938
Q21.4844 6.89062 26.8125 6.89062
Q36.0781 6.89062 40.9375 10.5469
Q45.7969 14.2031 45.7969 21.1875
Q45.7969 27.6406 41.2812 31.2656
Q36.7656 34.9062 28.7188 34.9062
L20.2188 34.9062
L20.2188 43.0156
L29.1094 43.0156
Q36.375 43.0156 40.2344 45.9219
Q44.0938 48.8281 44.0938 54.2969
Q44.0938 59.9062 40.1094 62.9062
Q36.1406 65.9219 28.7188 65.9219
Q24.6562 65.9219 20.0156 65.0312
Q15.375 64.1562 9.8125 62.3125
L9.8125 71.0938
Q15.4375 72.6562 20.3438 73.4375
Q25.25 74.2188 29.5938 74.2188
Q40.8281 74.2188 47.3594 69.1094
Q53.9062 64.0156 53.9062 55.3281
Q53.9062 49.2656 50.4375 45.0938
Q46.9688 40.9219 40.5781 39.3125" id="DejaVuSans-33"/>
     <path d="
M2.98438 54.6875
L12.5 54.6875
L29.5938 8.79688
L46.6875 54.6875
L56.2031 54.6875
L35.6875 0
L23.4844 0
z
" id="DejaVuSans-76"/>
     <path d="
M10.6875 12.4062
L21 12.4062
L21 0
L10.6875 0
z
" id="DejaVuSans-2e"/>
    </defs>
    <g transform="translate(112.63177125 170.199316875)rotate(-90.0)scale(0.09996 -0.09996)">
     <use xlink:href="#DejaVuSans-76"/>
     <use x="59.1796875" xlink:href="#DejaVuSans-30"/>
     <use x="122.802734375" xlink:href="#DejaVuSans-2e"/>
     <use x="154.58984375" xlink:href="#DejaVuSans-33"/>
     <use x="218.212890625" xlink:href="#DejaVuSans-2e"/>
     <use x="250.0" xlink:href="#DejaVuSans-30"/>
    </g>
   </g>
   <g id="text_21">
    <g id="patch_8">
     <path d="
M114.94 146.34
L128.615 146.34
L128.615 112.211
L114.94 112.211
z
" style="fill:#ffffff;stroke:#ffffff;"/>
    </g>
    <!-- v0.3.1 -->
    <g transform="translate(124.53577125 144.340045625)rotate(-90.0)scale(0.09996 -0.09996)">
     <use xlink:href="#DejaVuSans-76"/>
     <use x="59.1796875" xlink:href="#DejaVuSans-30"/>
     <use x="122.802734375" xlink:href="#DejaVuSans-2e"/>
     <use x="154.58984375" xlink:href="#DejaVuSans-33"/>
     <use x="218.212890625" xlink:href="#DejaVuSans-2e"/>
     <use x="250.0" xlink:href="#DejaVuSans-31"/>
    </g>
   </g>
   <g id="text_22">
    <g id="patch_9">
     <path d="
M126.1 171.862
L139.775 171.862
L139.775 137.811
L126.1 137.811
z
" style="fill:#ffffff;stroke:#ffffff;"/>
    </g>
    <!-- v0.3.2 -->
    <g transform="translate(135.69577125 169.861951875)rotate(-90.0)scale(0.09996 -0.09996)">
     <use xlink:href="#DejaVuSans-76"/>
     <use x="59.1796875" xlink:href="#DejaVuSans-30"/>
     <use x="122.802734375" xlink:href="#DejaVuSans-2e"/>
     <use x="154.58984375" xlink:href="#DejaVuSans-33"/>
     <use x="218.212890625" xlink:href="#DejaVuSans-2e"/>
     <use x="250.0" xlink:href="#DejaVuSans-32"/>
    </g>
   </g>
   <g id="text_23">
    <g id="patch_10">
     <path d="
M138.376 146.462
L152.051 146.462
L152.051 112.211
L138.376 112.211
z
" style="fill:#ffffff;stroke:#ffffff;"/>
    </g>
    <!-- v0.3.3 -->
    <g transform="translate(147.97177125 144.461871875)rotate(-90.0)scale(0.09996 -0.09996)">
     <use xlink:href="#DejaVuSans-76"/>
     <use x="59.1796875" xlink:href="#DejaVuSans-30"/>
     <use x="122.802734375" xlink:href="#DejaVuSans-2e"/>
     <use x="154.58984375" xlink:href="#DejaVuSans-33"/>
     <use x="218.212890625" xlink:href="#DejaVuSans-2e"/>
     <use x="250.0" xlink:href="#DejaVuSans-33"/>
    </g>
   </g>
   <g id="text_24">
    <g id="patch_11">
     <path d="
M150.652 172.302
L164.327 172.302
L164.327 137.811
L150.652 137.811
z
" style="fill:#ffffff;stroke:#ffffff;"/>
    </g>
    <!-- v0.3.4 -->
    <g transform="translate(160.24777125 170.302400625)rotate(-90.0)scale(0.09996 -0.09996)">
     <use xlink:href="#DejaVuSans-76"/>
     <use x="59.1796875" xlink:href="#DejaVuSans-30"/>
     <use x="122.802734375" xlink:href="#DejaVuSans-2e"/>
     <use x="154.58984375" xlink:href="#DejaVuSans-33"/>
     <use x="218.212890625" xlink:href="#DejaVuSans-2e"/>
     <use x="250.0" xlink:href="#DejaVuSans-34"/>
    </g>
   </g>
   <g id="text_25">
    <g id="patch_12">
     <path d="
M155.488 146.39
L169.163 146.39
L169.163 112.211
L155.488 112.211
z
" style="fill:#ffffff;stroke:#ffffff;"/>
    </g>
    <!-- v0.3.5 -->
    <g transform="translate(165.08377125 144.390025625)rotate(-90.0)scale(0.09996 -0.09996)">
     <use xlink:href="#DejaVuSans-76"/>
     <use x="59.1796875" xlink:href="#DejaVuSans-30"/>
     <use x="122.802734375" xlink:href="#DejaVuSans-2e"/>
     <use x="154.58984375" xlink:href="#DejaVuSans-33"/>
     <use x="218.212890625" xlink:href="#DejaVuSans-2e"/>
     <use x="250.0" xlink:href="#DejaVuSans-35"/>
    </g>
   </g>
   <g id="text_26">
    <g id="patch_13">
     <path d="
M170.368 172.234
L184.043 172.234
L184.043 137.811
L170.368 137.811
z
" style="fill:#ffffff;stroke:#ffffff;"/>
    </g>
    <!-- v0.3.6 -->
    <g transform="translate(179.96377125 170.233678125)rotate(-90.0)scale(0.09996 -0.09996)">
     <use xlink:href="#DejaVuSans-76"/>
     <use x="59.1796875" xlink:href="#DejaVuSans-30"/>
     <use x="122.802734375" xlink:href="#DejaVuSans-2e"/>
     <use x="154.58984375" xlink:href="#DejaVuSans-33"/>
     <use x="218.212890625" xlink:href="#DejaVuSans-2e"/>
     <use x="250.0" xlink:href="#DejaVuSans-36"/>
    </g>
   </g>
   <g id="text_27">
    <g id="patch_14">
     <path d="
M183.016 146.409
L196.691 146.409
L196.691 112.211
L183.016 112.211
z
" style="fill:#ffffff;stroke:#ffffff;"/>
    </g>
    <!-- v0.3.7 -->
    <g transform="translate(192.61177125 144.408768125)rotate(-90.0)scale(0.09996 -0.09996)">
     <use xlink:href="#DejaVuSans-76"/>
     <use x="59.1796875" xlink:href="#DejaVuSans-30"/>
     <use x="122.802734375" xlink:href="#DejaVuSans-2e"/>
     <use x="154.58984375" xlink:href="#DejaVuSans-33"/>
     <use x="218.212890625" xlink:href="#DejaVuSans-2e"/>
     <use x="250.0" xlink:href="#DejaVuSans-37"/>
    </g>
   </g>
   <g id="text_28">
    <g id="patch_15">
     <path d="
M197.152 172.179
L210.827 172.179
L210.827 137.811
L197.152 137.811
z
" style="fill:#ffffff;stroke:#ffffff;"/>
    </g>
    <!-- v0.3.8 -->
    <g transform="translate(206.74777125 170.1790125)rotate(-90.0)scale(0.09996 -0.09996)">
     <use xlink:href="#DejaVuSans-76"/>
     <use x="59.1796875" xlink:href="#DejaVuSans-30"/>
     <use x="122.802734375" xlink:href="#DejaVuSans-2e"/>
     <use x="154.58984375" xlink:href="#DejaVuSans-33"/>
     <use x="218.212890625" xlink:href="#DejaVuSans-2e"/>
     <use x="250.0" xlink:href="#DejaVuSans-38"/>
    </g>
   </g>
   <g id="text_29">
    <g id="patch_16">
     <path d="
M208.312 146.56
L221.987 146.56
L221.987 112.211
L208.312 112.211
z
" style="fill:#ffffff;stroke:#ffffff;"/>
    </g>
    <!-- v0.3.9 -->
    <defs>
     <path d="
M10.9844 1.51562
L10.9844 10.5
Q14.7031 8.73438 18.5 7.8125
Q22.3125 6.89062 25.9844 6.89062
Q35.75 6.89062 40.8906 13.4531
Q46.0469 20.0156 46.7812 33.4062
Q43.9531 29.2031 39.5938 26.9531
Q35.25 24.7031 29.9844 24.7031
Q19.0469 24.7031 12.6719 31.3125
Q6.29688 37.9375 6.29688 49.4219
Q6.29688 60.6406 12.9375 67.4219
Q19.5781 74.2188 30.6094 74.2188
Q43.2656 74.2188 49.9219 64.5156
Q56.5938 54.8281 56.5938 36.375
Q56.5938 19.1406 48.4062 8.85938
Q40.2344 -1.42188 26.4219 -1.42188
Q22.7031 -1.42188 18.8906 -0.6875
Q15.0938 0.046875 10.9844 1.51562
M30.6094 32.4219
Q37.25 32.4219 41.125 36.9531
Q45.0156 41.5 45.0156 49.4219
Q45.0156 57.2812 41.125 61.8438
Q37.25 66.4062 30.6094 66.4062
Q23.9688 66.4062 20.0938 61.8438
Q16.2188 57.2812 16.2188 49.4219
Q16.2188 41.5 20.0938 36.9531
Q23.9688 32.4219 30.6094 32.4219" id="DejaVuSans-39"/>
    </defs>
    <g transform="translate(217.90777125 144.56027)rotate(-90.0)scale(0.09996 -0.09996)">
     <use xlink:href="#DejaVuSans-76"/>
     <use x="59.1796875" xlink:href="#DejaVuSans-30"/>
     <use x="122.802734375" xlink:href="#DejaVuSans-2e"/>
     <use x="154.58984375" xlink:href="#DejaVuSans-33"/>
     <use x="218.212890625" xlink:href="#DejaVuSans-2e"/>
     <use x="250.0" xlink:href="#DejaVuSans-39"/>
    </g>
   </g>
   <g id="text_30">
    <g id="patch_17">
     <path d="
M217.612 178.559
L231.287 178.559
L231.287 137.811
L217.612 137.811
z
" style="fill:#ffffff;stroke:#ffffff;"/>
    </g>
    <!-- v0.3.10 -->
    <g transform="translate(227.20777125 176.559271875)rotate(-90.0)scale(0.09996 -0.09996)">
     <use xlink:href="#DejaVuSans-76"/>
     <use x="59.1796875" xlink:href="#DejaVuSans-30"/>
     <use x="122.802734375" xlink:href="#DejaVuSans-2e"/>
     <use x="154.58984375" xlink:href="#DejaVuSans-33"/>
     <use x="218.212890625" xlink:href="#DejaVuSans-2e"/>
     <use x="250.0" xlink:href="#DejaVuSans-31"/>
     <use x="313.623046875" xlink:href="#DejaVuSans-30"/>
    </g>
   </g>
   <g id="text_31">
    <g id="patch_18">
     <path d="
M229.888 152.7
L243.563 152.7
L243.563 112.211
L229.888 112.211
z
" style="fill:#ffffff;stroke:#ffffff;"/>
    </g>
    <!-- v0.3.11 -->
    <g transform="translate(239.48377125 150.700000625)rotate(-90.0)scale(0.09996 -0.09996)">
     <use xlink:href="#DejaVuSans-76"/>
     <use x="59.1796875" xlink:href="#DejaVuSans-30"/>
     <use x="122.802734375" xlink:href="#DejaVuSans-2e"/>
     <use x="154.58984375" xlink:href="#DejaVuSans-33"/>
     <use x="218.212890625" xlink:href="#DejaVuSans-2e"/>
     <use x="250.0" xlink:href="#DejaVuSans-31"/>
     <use x="313.623046875" xlink:href="#DejaVuSans-31"/>
    </g>
   </g>
   <g id="text_32">
    <g id="patch_19">
     <path d="
M263.74 178.222
L277.415 178.222
L277.415 137.811
L263.74 137.811
z
" style="fill:#ffffff;stroke:#ffffff;"/>
    </g>
    <!-- v0.3.12 -->
    <g transform="translate(273.33577125 176.221906875)rotate(-90.0)scale(0.09996 -0.09996)">
     <use xlink:href="#DejaVuSans-76"/>
     <use x="59.1796875" xlink:href="#DejaVuSans-30"/>
     <use x="122.802734375" xlink:href="#DejaVuSans-2e"/>
     <use x="154.58984375" xlink:href="#DejaVuSans-33"/>
     <use x="218.212890625" xlink:href="#DejaVuSans-2e"/>
     <use x="250.0" xlink:href="#DejaVuSans-31"/>
     <use x="313.623046875" xlink:href="#DejaVuSans-32"/>
    </g>
   </g>
   <g id="text_33">
    <g id="patch_20">
     <path d="
M257.044 242.599
L270.719 242.599
L270.719 208.211
L257.044 208.211
z
" style="fill:#ffffff;stroke:#ffffff;"/>
    </g>
    <!-- v0.4.0 -->
    <g transform="translate(266.63977125 240.599316875)rotate(-90.0)scale(0.09996 -0.09996)">
     <use xlink:href="#DejaVuSans-76"/>
     <use x="59.1796875" xlink:href="#DejaVuSans-30"/>
     <use x="122.802734375" xlink:href="#DejaVuSans-2e"/>
     <use x="154.58984375" xlink:href="#DejaVuSans-34"/>
     <use x="218.212890625" xlink:href="#DejaVuSans-2e"/>
     <use x="250.0" xlink:href="#DejaVuSans-30"/>
    </g>
   </g>
   <g id="text_34">
    <g id="patch_21">
     <path d="
M268.576 223.14
L282.251 223.14
L282.251 189.011
L268.576 189.011
z
" style="fill:#ffffff;stroke:#ffffff;"/>
    </g>
    <!-- v0.4.1 -->
    <g transform="translate(278.17177125 221.140045625)rotate(-90.0)scale(0.09996 -0.09996)">
     <use xlink:href="#DejaVuSans-76"/>
     <use x="59.1796875" xlink:href="#DejaVuSans-30"/>
     <use x="122.802734375" xlink:href="#DejaVuSans-2e"/>
     <use x="154.58984375" xlink:href="#DejaVuSans-34"/>
     <use x="218.212890625" xlink:href="#DejaVuSans-2e"/>
     <use x="250.0" xlink:href="#DejaVuSans-31"/>
    </g>
   </g>
   <g id="text_35">
    <g id="patch_22">
     <path d="
M278.992 242.262
L292.667 242.262
L292.667 208.211
L278.992 208.211
z
" style="fill:#ffffff;stroke:#ffffff;"/>
    </g>
    <!-- v0.4.2 -->
    <g transform="translate(288.58777125 240.261951875)rotate(-90.0)scale(0.09996 -0.09996)">
     <use xlink:href="#DejaVuSans-76"/>
     <use x="59.1796875" xlink:href="#DejaVuSans-30"/>
     <use x="122.802734375" xlink:href="#DejaVuSans-2e"/>
     <use x="154.58984375" xlink:href="#DejaVuSans-34"/>
     <use x="218.212890625" xlink:href="#DejaVuSans-2e"/>
     <use x="250.0" xlink:href="#DejaVuSans-32"/>
    </g>
   </g>
   <g id="text_36">
    <g id="patch_23">
     <path d="
M292.756 223.262
L306.431 223.262
L306.431 189.011
L292.756 189.011
z
" style="fill:#ffffff;stroke:#ffffff;"/>
    </g>
    <!-- v0.4.3 -->
    <g transform="translate(302.35177125 221.261871875)rotate(-90.0)scale(0.09996 -0.09996)">
     <use xlink:href="#DejaVuSans-76"/>
     <use x="59.1796875" xlink:href="#DejaVuSans-30"/>
     <use x="122.802734375" xlink:href="#DejaVuSans-2e"/>
     <use x="154.58984375" xlink:href="#DejaVuSans-34"/>
     <use x="218.212890625" xlink:href="#DejaVuSans-2e"/>
     <use x="250.0" xlink:href="#DejaVuSans-33"/>
    </g>
   </g>
   <g id="text_37">
    <g id="patch_24">
     <path d="
M316.936 242.39
L330.611 242.39
L330.611 208.211
L316.936 208.211
z
" style="fill:#ffffff;stroke:#ffffff;"/>
    </g>
    <!-- v0.4.5 -->
    <g transform="translate(326.53177125 240.390025625)rotate(-90.0)scale(0.09996 -0.09996)">
     <use xlink:href="#DejaVuSans-76"/>
     <use x="59.1796875" xlink:href="#DejaVuSans-30"/>
     <use x="122.802734375" xlink:href="#DejaVuSans-2e"/>
     <use x="154.58984375" xlink:href="#DejaVuSans-34"/>
     <use x="218.212890625" xlink:href="#DejaVuSans-2e"/>
     <use x="250.0" xlink:href="#DejaVuSans-35"/>
    </g>
   </g>
   <g id="text_38">
    <g id="patch_25">
     <path d="
M351.904 223.434
L365.579 223.434
L365.579 189.011
L351.904 189.011
z
" style="fill:#ffffff;stroke:#ffffff;"/>
    </g>
    <!-- v0.4.6 -->
    <g transform="translate(361.49977125 221.433678125)rotate(-90.0)scale(0.09996 -0.09996)">
     <use xlink:href="#DejaVuSans-76"/>
     <use x="59.1796875" xlink:href="#DejaVuSans-30"/>
     <use x="122.802734375" xlink:href="#DejaVuSans-2e"/>
     <use x="154.58984375" xlink:href="#DejaVuSans-34"/>
     <use x="218.212890625" xlink:href="#DejaVuSans-2e"/>
     <use x="250.0" xlink:href="#DejaVuSans-36"/>
    </g>
   </g>
   <g id="text_39">
    <g id="patch_26">
     <path d="
M385.756 242.409
L399.431 242.409
L399.431 208.211
L385.756 208.211
z
" style="fill:#ffffff;stroke:#ffffff;"/>
    </g>
    <!-- v0.4.7 -->
    <g transform="translate(395.35177125 240.408768125)rotate(-90.0)scale(0.09996 -0.09996)">
     <use xlink:href="#DejaVuSans-76"/>
     <use x="59.1796875" xlink:href="#DejaVuSans-30"/>
     <use x="122.802734375" xlink:href="#DejaVuSans-2e"/>
     <use x="154.58984375" xlink:href="#DejaVuSans-34"/>
     <use x="218.212890625" xlink:href="#DejaVuSans-2e"/>
     <use x="250.0" xlink:href="#DejaVuSans-37"/>
    </g>
   </g>
   <g id="text_40">
    <g id="patch_27">
     <path d="
M386.128 178.599
L399.803 178.599
L399.803 144.211
L386.128 144.211
z
" style="fill:#ffffff;stroke:#ffffff;"/>
    </g>
    <!-- v0.5.0 -->
    <g transform="translate(395.72377125 176.599316875)rotate(-90.0)scale(0.09996 -0.09996)">
     <use xlink:href="#DejaVuSans-76"/>
     <use x="59.1796875" xlink:href="#DejaVuSans-30"/>
     <use x="122.802734375" xlink:href="#DejaVuSans-2e"/>
     <use x="154.58984375" xlink:href="#DejaVuSans-35"/>
     <use x="218.212890625" xlink:href="#DejaVuSans-2e"/>
     <use x="250.0" xlink:href="#DejaVuSans-30"/>
    </g>
   </g>
   <g id="text_41">
    <g id="patch_28">
     <path d="
M448.252 165.54
L461.927 165.54
L461.927 131.411
L448.252 131.411
z
" style="fill:#ffffff;stroke:#ffffff;"/>
    </g>
    <!-- v0.5.1 -->
    <g transform="translate(457.84777125 163.540045625)rotate(-90.0)scale(0.09996 -0.09996)">
     <use xlink:href="#DejaVuSans-76"/>
     <use x="59.1796875" xlink:href="#DejaVuSans-30"/>
     <use x="122.802734375" xlink:href="#DejaVuSans-2e"/>
     <use x="154.58984375" xlink:href="#DejaVuSans-35"/>
     <use x="218.212890625" xlink:href="#DejaVuSans-2e"/>
     <use x="250.0" xlink:href="#DejaVuSans-31"/>
    </g>
   </g>
   <g id="text_42">
    <g id="patch_29">
     <path d="
M471.316 178.262
L484.991 178.262
L484.991 144.211
L471.316 144.211
z
" style="fill:#ffffff;stroke:#ffffff;"/>
    </g>
    <!-- v0.5.2 -->
    <g transform="translate(480.91177125 176.261951875)rotate(-90.0)scale(0.09996 -0.09996)">
     <use xlink:href="#DejaVuSans-76"/>
     <use x="59.1796875" xlink:href="#DejaVuSans-30"/>
     <use x="122.802734375" xlink:href="#DejaVuSans-2e"/>
     <use x="154.58984375" xlink:href="#DejaVuSans-35"/>
     <use x="218.212890625" xlink:href="#DejaVuSans-2e"/>
     <use x="250.0" xlink:href="#DejaVuSans-32"/>
    </g>
   </g>
   <g id="text_43">
    <g id="patch_30">
     <path d="
M487.684 242.599
L501.359 242.599
L501.359 208.211
L487.684 208.211
z
" style="fill:#ffffff;stroke:#ffffff;"/>
    </g>
    <!-- v0.6.0 -->
    <g transform="translate(497.27977125 240.599316875)rotate(-90.0)scale(0.09996 -0.09996)">
     <use xlink:href="#DejaVuSans-76"/>
     <use x="59.1796875" xlink:href="#DejaVuSans-30"/>
     <use x="122.802734375" xlink:href="#DejaVuSans-2e"/>
     <use x="154.58984375" xlink:href="#DejaVuSans-36"/>
     <use x="218.212890625" xlink:href="#DejaVuSans-2e"/>
     <use x="250.0" xlink:href="#DejaVuSans-30"/>
    </g>
   </g>
   <g id="text_44">
    <g id="patch_31">
     <path d="
M534.928 203.94
L548.603 203.94
L548.603 169.811
L534.928 169.811
z
" style="fill:#ffffff;stroke:#ffffff;"/>
    </g>
    <!-- v0.6.1 -->
    <g transform="translate(544.52377125 201.940045625)rotate(-90.0)scale(0.09996 -0.09996)">
     <use xlink:href="#DejaVuSans-76"/>
     <use x="59.1796875" xlink:href="#DejaVuSans-30"/>
     <use x="122.802734375" xlink:href="#DejaVuSans-2e"/>
     <use x="154.58984375" xlink:href="#DejaVuSans-36"/>
     <use x="218.212890625" xlink:href="#DejaVuSans-2e"/>
     <use x="250.0" xlink:href="#DejaVuSans-31"/>
    </g>
   </g>
   <g id="text_45">
    <g id="patch_32">
     <path d="
M553.528 184.662
L567.203 184.662
L567.203 150.611
L553.528 150.611
z
" style="fill:#ffffff;stroke:#ffffff;"/>
    </g>
    <!-- v0.6.2 -->
    <g transform="translate(563.12377125 182.661951875)rotate(-90.0)scale(0.09996 -0.09996)">
     <use xlink:href="#DejaVuSans-76"/>
     <use x="59.1796875" xlink:href="#DejaVuSans-30"/>
     <use x="122.802734375" xlink:href="#DejaVuSans-2e"/>
     <use x="154.58984375" xlink:href="#DejaVuSans-36"/>
     <use x="218.212890625" xlink:href="#DejaVuSans-2e"/>
     <use x="250.0" xlink:href="#DejaVuSans-32"/>
    </g>
   </g>
   <g id="legend_1">
    <g id="patch_33">
     <path d="
M61.6755 109.037
L112.338 109.037
L112.338 18.0049
L61.6755 18.0049
L61.6755 109.037
z
" style="fill:#ffffff;stroke:#000000;"/>
    </g>
    <g id="line2d_69">
     <path d="
M68.6727 26.1001
L82.6671 26.1001" style="fill:none;stroke:#ff0000;stroke-linecap:square;stroke-width:2;"/>
    </g>
    <g id="line2d_70"/>
    <g id="text_46">
     <!-- 0.2 -->
     <g transform="translate(93.6627 29.598673125)scale(0.09996 -0.09996)">
      <use xlink:href="#DejaVuSans-30"/>
      <use x="63.623046875" xlink:href="#DejaVuSans-2e"/>
      <use x="95.41015625" xlink:href="#DejaVuSans-32"/>
     </g>
    </g>
    <g id="line2d_71">
     <path d="
M68.6727 40.7723
L82.6671 40.7723" style="fill:none;stroke:#008000;stroke-linecap:square;stroke-width:2;"/>
    </g>
    <g id="line2d_72"/>
    <g id="text_47">
     <!-- 0.3 -->
     <g transform="translate(93.6627 44.270926875)scale(0.09996 -0.09996)">
      <use xlink:href="#DejaVuSans-30"/>
      <use x="63.623046875" xlink:href="#DejaVuSans-2e"/>
      <use x="95.41015625" xlink:href="#DejaVuSans-33"/>
     </g>
    </g>
    <g id="line2d_73">
     <path d="
M68.6727 55.4446
L82.6671 55.4446" style="fill:none;stroke:#0000ff;stroke-linecap:square;stroke-width:2;"/>
    </g>
    <g id="line2d_74"/>
    <g id="text_48">
     <!-- 0.4 -->
     <g transform="translate(93.6627 58.943180625)scale(0.09996 -0.09996)">
      <use xlink:href="#DejaVuSans-30"/>
      <use x="63.623046875" xlink:href="#DejaVuSans-2e"/>
      <use x="95.41015625" xlink:href="#DejaVuSans-34"/>
     </g>
    </g>
    <g id="line2d_75">
     <path d="
M68.6727 70.1168
L82.6671 70.1168" style="fill:none;stroke:#000000;stroke-linecap:square;stroke-width:2;"/>
    </g>
    <g id="line2d_76"/>
    <g id="text_49">
     <!-- 0.5 -->
     <g transform="translate(93.6627 73.615434375)scale(0.09996 -0.09996)">
      <use xlink:href="#DejaVuSans-30"/>
      <use x="63.623046875" xlink:href="#DejaVuSans-2e"/>
      <use x="95.41015625" xlink:href="#DejaVuSans-35"/>
     </g>
    </g>
    <g id="line2d_77">
     <path d="
M68.6727 84.7891
L82.6671 84.7891" style="fill:none;stroke:#bfbf00;stroke-linecap:square;stroke-width:2;"/>
    </g>
    <g id="line2d_78"/>
    <g id="text_50">
     <!-- 0.6 -->
     <g transform="translate(93.6627 88.287688125)scale(0.09996 -0.09996)">
      <use xlink:href="#DejaVuSans-30"/>
      <use x="63.623046875" xlink:href="#DejaVuSans-2e"/>
      <use x="95.41015625" xlink:href="#DejaVuSans-36"/>
     </g>
    </g>
    <g id="line2d_79">
     <path d="
M68.6727 99.4613
L82.6671 99.4613" style="fill:none;stroke:#bf00bf;stroke-linecap:square;stroke-width:2;"/>
    </g>
    <g id="line2d_80"/>
    <g id="text_51">
     <!-- 0.7 -->
     <g transform="translate(93.6627 102.959941875)scale(0.09996 -0.09996)">
      <use xlink:href="#DejaVuSans-30"/>
      <use x="63.623046875" xlink:href="#DejaVuSans-2e"/>
      <use x="95.41015625" xlink:href="#DejaVuSans-37"/>
     </g>
    </g>
   </g>
  </g>
 </g>
 <defs>
  <clipPath id="pe067ca5dee">
   <rect height="230.4" width="558.0" x="56.6775" y="13.006875"/>
  </clipPath>
 </defs>
</svg>
